<svg width="200" height="50" xmlns="http://www.w3.org/2000/svg">
 <style type="text/css">.st0{fill:#5179BC;}
	.st1{fill:#D5402F;}
	.st2{fill:#EBB621;}
	.st3{fill:#45A256;}
	.st4{fill:url(#SVGID_1_);}
	.st5{fill:url(#SVGID_2_);}</style>

 <g>
  <title>background</title>
  <rect fill="none" id="canvas_background" height="402" width="582" y="-1" x="-1"/>
 </g>
 <g>
  <title>Layer 1</title>
  <g id="svg_1">
   <text xml:space="preserve" text-anchor="start" font-family="Arvo, sans-serif" font-size="18" id="svg_12" y="31.805504" x="60" stroke-opacity="null" stroke-width="0" stroke="null" fill="#ff5656">道</text>
   <text xml:space="preserve" text-anchor="start" font-family="Arvo, sans-serif" font-size="18" id="svg_13" y="32" x="30" stroke-opacity="null" stroke-width="0" stroke="null" fill="#007fff">觅</text>
   <text xml:space="preserve" text-anchor="start" font-family="Arvo, sans-serif" font-size="18" id="svg_14" y="31.638826" x="128" stroke-width="0" fill="#ff7f00">搜</text>
   <text xml:space="preserve" text-anchor="start" font-family="Arvo, sans-serif" font-size="18" id="svg_16" y="31.639457" x="158" stroke-opacity="null" stroke-width="0" stroke="null" fill="#559E84">索</text>
   <g stroke="null" id="svg_37">
    <path stroke="null" id="svg_22" fill="#7ae57d" d="m91.522974,17.955419l-1.031728,0c-0.271255,0 -0.491246,0.209859 -0.491246,0.468622l0,14.714986c0,0.258938 0.219991,0.468798 0.491246,0.468798l11.593708,0l0,-14.855714l-2.161557,0l-0.78592,-0.796693l-7.614502,0zm0,0"/>
    <path stroke="null" id="svg_23" fill="#66d166" d="m101.249798,18.752111l0,13.590399c0,0.258762 -0.219991,0.468622 -0.491246,0.468622l-10.758552,0l0,0.328071c0,0.258763 0.219991,0.468622 0.491246,0.468622l11.593708,0l0,-14.855714l-0.835156,0zm0,0"/>
    <path stroke="null" id="svg_24" fill="#ddf5ff" d="m102.084954,32.15499l-0.797906,-0.806016c-0.556709,-0.562382 -1.331934,-0.88113 -2.142933,-0.88113l-7.621141,0l0,-12.934257c0,-0.258762 0.219807,-0.468622 0.491246,-0.468622l7.129894,0c0.810999,0 1.586224,0.318748 2.142933,0.88113l0.797906,0.806016l0,13.402879zm0,0"/>
    <path stroke="null" id="svg_25" fill="#c1e9f4" d="m101.299034,31.361112l0.78592,0.793878l0,-13.402879l-0.78592,-0.793878l0,13.402879zm0,0"/>
    <path stroke="null" id="svg_26" fill="#c1e9f4" d="m91.522974,30.467845l0,1.218523c0,0.258763 0.219807,0.468622 0.491246,0.468622l10.070733,0l-0.797906,-0.806016c-0.556709,-0.562382 -1.331934,-0.88113 -2.142933,-0.88113l-7.621141,0zm0,0"/>
    <path stroke="null" id="svg_27" fill="#7ae57d" d="m112.646934,17.955419l1.031728,0c0.271255,0 0.491246,0.209684 0.491246,0.468622l0,14.714986c0,0.258938 -0.219991,0.468798 -0.491246,0.468798l-11.593708,0l0,-14.855714l2.161557,0l0.78592,-0.796693l7.614502,0zm0,0"/>
    <path stroke="null" id="svg_28" fill="#66d166" d="m113.383988,17.955419l0,14.387092c0,0.258762 -0.219991,0.468446 -0.491246,0.468446l-10.807787,0l0,0.796693l11.593708,0c0.271255,0 0.491246,-0.209684 0.491246,-0.468622l0,-14.714986c0,-0.258763 -0.219991,-0.468622 -0.491246,-0.468622l-0.294674,0zm0,0"/>
    <path stroke="null" id="svg_29" fill="#ddf5ff" d="m102.084954,32.15499l0.797906,-0.806016c0.556709,-0.562382 1.331934,-0.88113 2.142933,-0.88113l7.62114,0l0,-12.934257c0,-0.258762 -0.219807,-0.468622 -0.491062,-0.468622l-7.130078,0c-0.810999,0 -1.586224,0.318748 -2.142933,0.88113l-0.797906,0.806016l0,13.402879zm0,0"/>
    <path stroke="null" id="svg_30" fill="#c1e9f4" d="m111.910065,17.064966l0,13.402879l0.736869,0l0,-12.934257c0,-0.258762 -0.219807,-0.468622 -0.491062,-0.468622l-0.245807,0zm0,0"/>
    <path stroke="null" id="svg_31" fill="#c1e9f4" d="m112.646934,30.467845l0,1.218523c0,0.258763 -0.219807,0.468622 -0.491062,0.468622l-10.070918,0l0.797906,-0.806016c0.556709,-0.562382 1.331934,-0.88113 2.142933,-0.88113l7.62114,0zm0,0"/>
    <path stroke="null" id="svg_32" fill="#636363" d="m102.5762,36.934973l-0.982493,0c-0.271255,0 -0.491246,-0.209684 -0.491246,-0.468622l0,-7.826204l1.964985,0l0,7.826204c0,0.258938 -0.219991,0.468622 -0.491246,0.468622zm0,0"/>
    <path stroke="null" id="svg_33" fill="#494949" d="m102.281526,28.640147l-1.179065,0l0,1.514931c0.319568,0.051365 0.647804,0.078456 0.982493,0.078456c0.065831,0 0.131109,-0.001759 0.196572,-0.00387l0,6.70531l0.294674,0c0.271255,0 0.491246,-0.209684 0.491246,-0.468622l0,-7.826204l-0.78592,0zm0,0"/>
    <path stroke="null" id="svg_34" fill="#636363" d="m106.997602,24.610066c0,2.588153 -2.199544,4.686223 -4.912648,4.686223s-4.912648,-2.09807 -4.912648,-4.686223c0,-2.588329 2.199544,-4.686399 4.912648,-4.686399s4.912648,2.09807 4.912648,4.686399zm0,0"/>
    <path stroke="null" id="svg_35" fill="#494949" d="m105.251132,21.027146c0.721749,0.815691 1.156937,1.869564 1.156937,3.020538c0,2.588153 -2.199544,4.686223 -4.912648,4.686223c-1.206541,0 -2.311107,-0.415146 -3.166178,-1.103479c0.900987,1.01869 2.249148,1.665861 3.755711,1.665861c2.713103,0 4.912648,-2.09807 4.912648,-4.686223c0,-1.437355 -0.678598,-2.723252 -1.746469,-3.58292zm0,0"/>
    <path stroke="null" id="svg_36" fill="#8db0ff" d="m105.523863,24.610066c0,1.811689 -1.539755,3.280356 -3.438909,3.280356s-3.438909,-1.468667 -3.438909,-3.280356c0,-1.811866 1.539755,-3.280532 3.438909,-3.280532s3.438909,1.468666 3.438909,3.280532zm0,0"/>
   </g>
  </g>
 </g>
</svg>