<?xml version="1.0" encoding="UTF-8" standalone="no"?>
<!-- Created with Inkscape (http://www.inkscape.org/) -->

<svg
   width="480"
   height="120"
   viewBox="0 0 127 31.750001"
   version="1.1"
   id="svg73"
   inkscape:version="1.1 (c68e22c387, 2021-05-23)"
   sodipodi:docname="mrdoc_search.svg"
   xmlns:inkscape="http://www.inkscape.org/namespaces/inkscape"
   xmlns:sodipodi="http://sodipodi.sourceforge.net/DTD/sodipodi-0.dtd"
   xmlns="http://www.w3.org/2000/svg"
   xmlns:svg="http://www.w3.org/2000/svg">
  <sodipodi:namedview
     id="namedview75"
     pagecolor="#ffffff"
     bordercolor="#666666"
     borderopacity="1.0"
     inkscape:pageshadow="2"
     inkscape:pageopacity="0.0"
     inkscape:pagecheckerboard="0"
     inkscape:document-units="mm"
     showgrid="true"
     units="px"
     inkscape:zoom="1.9804942"
     inkscape:cx="256.50163"
     inkscape:cy="170.15955"
     inkscape:window-width="1920"
     inkscape:window-height="986"
     inkscape:window-x="-11"
     inkscape:window-y="-11"
     inkscape:window-maximized="1"
     inkscape:current-layer="layer1">
    <inkscape:grid
       type="xygrid"
       id="grid77" />
  </sodipodi:namedview>
  <defs
     id="defs70" />
  <g
     inkscape:label="图层 1"
     inkscape:groupmode="layer"
     id="layer1">
    <g
       aria-label="觅 思     搜 索"
       id="text389"
       style="font-size:16.9333px;line-height:1.25;font-family:xiaowei;-inkscape-font-specification:'xiaowei, Normal';fill:#333333;stroke-width:0.264583">
      <path
         d="m 16.28098,10.450273 q 0.198437,0.09922 0.363801,0.198437 0.198437,0.09922 0.562238,0.23151 0.363802,0.09922 0.793749,0.165364 0.429947,0.06615 1.025258,0.09922 0.628384,0.03307 1.85208,-0.06615 0.297656,-0.03307 1.091404,-0.09922 0.826821,-0.06615 1.124477,-0.09922 1.355987,-0.09922 2.248954,-0.165364 1.223695,-0.09922 1.322914,-0.09922 0.06615,0 0.06615,0.562239 v 0.529165 l -0.23151,0.03307 q -0.06615,0 -1.422133,0.132292 -1.190623,0.06615 -1.918225,0.132291 -2.08359,0.165364 -2.282027,0.198437 -1.587497,0.132291 -1.752861,0.09922 -0.198437,-0.03307 -0.396874,-0.06615 -0.132292,-0.03307 -0.46302,-0.132291 -0.23151,-0.06615 -0.562239,-0.23151 -0.23151,-0.132292 -0.529165,-0.330729 Q 16.909364,11.34324 16.644781,11.11173 16.380198,10.88022 16.247907,10.714856 16.082543,10.516419 16.115615,10.4172 l 0.03307,-0.09922 z m 3.241139,2.3151 q 0,0 0.198437,0.132291 0.198437,0.132291 0.396874,0.330728 0.198438,0.23151 0.297656,0.429948 0.09922,0.198437 0.09922,0.562238 0,0.363801 -0.06615,0.429947 -0.03307,0.06615 -0.760676,-0.429947 -0.760675,-0.496093 -0.760675,-0.496093 -0.03307,-0.03307 0.264583,-0.496093 0.297655,-0.463019 0.330728,-0.463019 z m 2.414318,0.463019 q 0.297656,-0.429947 0.330729,-0.429947 0.03307,-0.03307 0.23151,0.132292 0.198437,0.132291 0.396874,0.330728 0.198437,0.198437 0.264583,0.396875 0.09922,0.198437 0.132291,0.396874 0.03307,0.198437 0,0.363801 -0.03307,0.165364 -0.09922,0.23151 -0.03307,0.06615 -0.793749,-0.429947 -0.760675,-0.496093 -0.760675,-0.529166 0,-0.03307 0.297655,-0.46302 z m 3.968742,-0.297655 q 0.03307,0.03307 0.09922,0.09922 0.06615,0.03307 0.165364,0.09922 0.09922,0.06615 0.198437,0.132291 0.297656,0.23151 0.330729,0.264583 0,0 -0.09922,0.165364 -0.132291,0.165365 -0.330728,0.363802 -0.264583,0.23151 -0.46302,0.330728 -0.198437,0.09922 -0.429947,0.132292 -0.198437,0 -0.396874,-0.03307 -0.165365,-0.06615 -0.198438,-0.09922 -0.06615,-0.03307 0.46302,-0.793748 l 0.562239,-0.727603 z m -7.07759,1.951298 h 0.562239 v 0.09922 0.132291 h 3.174993 3.174994 v -0.09922 -0.132291 h 0.562239 0.595311 l -0.03307,2.447391 q 0,2.414318 -0.09922,2.645828 -0.06615,0.198437 -0.198438,0.363802 -0.132291,0.198437 -0.297655,0.297655 -0.198437,0.132292 -0.330729,0.165364 -0.132291,0.03307 -0.165364,0.03307 -0.03307,-0.03307 -0.03307,-2.546609 v -2.513537 h -3.174994 -3.174993 v 1.885153 q 0,1.918225 -0.06615,2.149735 -0.06615,0.198437 -0.165364,0.396874 -0.06615,0.165364 -0.264583,0.330729 -0.165364,0.165364 -0.297656,0.23151 -0.06614,0.03307 -0.198437,0.06614 h -0.09922 v -2.976556 -2.976557 z m 3.671087,1.521351 q 0.793748,0 0.793748,0.03307 0.03307,0.03307 -0.03307,0.529166 -0.132291,0.529165 -0.23151,0.826821 -0.09922,0.396874 -0.297655,0.859894 -0.165365,0.46302 -0.396875,0.92604 -0.264582,0.562238 -0.463019,0.892967 -0.297656,0.46302 -0.595312,0.859894 -0.297655,0.429947 -0.727603,0.826821 -0.396874,0.396875 -0.727602,0.661457 -0.297656,0.23151 -0.628384,0.46302 -0.330729,0.198437 -0.793749,0.429947 -0.496093,0.23151 -0.859894,0.363802 -0.330729,0.09922 -0.69453,0.198437 -0.297656,0.09922 -0.363801,0.06615 -0.06615,-0.03307 -0.330729,-0.03307 -0.264583,-0.03307 -0.297655,-0.06615 0,0 0.03307,-0.03307 0.03307,-0.03307 0.09922,-0.06614 0.09922,-0.03307 0.198437,-0.06615 0.297656,-0.132292 0.727603,-0.330729 0.330728,-0.165364 0.760675,-0.429947 0.363802,-0.23151 0.727603,-0.529165 0.363801,-0.264583 0.760676,-0.628385 0.396874,-0.396874 0.661457,-0.694529 0.264583,-0.330729 0.496093,-0.69453 0.297655,-0.46302 0.429947,-0.727603 0.198437,-0.330729 0.330728,-0.69453 0.132292,-0.363801 0.264583,-0.760676 0.132291,-0.463019 0.198437,-0.760675 0.06615,-0.363802 0.09922,-0.760676 0.03307,-0.429947 0.06615,-0.529165 v -0.132292 z m 1.091404,2.017444 h 0.562238 v 2.017444 q 0,0.826821 0,1.455206 0.03307,0.628384 0.03307,0.694529 0.03307,0.165365 0.132292,0.264583 0.09922,0.06615 0.23151,0.165365 0.132291,0.06615 2.149735,0.06615 2.017444,0 2.050517,0.06615 0,0.06615 -0.03307,0.165364 -0.03307,0.132292 -0.132292,0.264583 -0.09922,0.09922 -0.297655,0.165364 -0.198437,0.06615 -1.058332,0.06615 -0.892966,0.03307 -2.149735,0 -1.223695,-0.06615 -1.422132,-0.132291 -0.198438,-0.06615 -0.363802,-0.23151 -0.132291,-0.165365 -0.198437,-0.297656 -0.03307,-0.165364 -0.03307,-2.447391 l -0.03307,-2.282027 z"
         id="path3677" />
      <path
         d="m 39.795777,10.781001 h 0.661457 v 0.165365 0.132291 h 3.638013 3.638014 v -0.132291 -0.132292 l 0.628384,-0.03307 h 0.661457 l -0.03307,3.141921 v 3.141921 l -0.09922,0.198437 q -0.06615,0.23151 -0.198437,0.396875 -0.09922,0.132291 -0.297656,0.264582 -0.198437,0.132292 -0.429947,0.132292 h -0.23151 v -0.132292 -0.132291 h -3.869523 q -3.869524,0 -3.968743,0.09922 -0.09922,0.06614 -0.264583,0.132291 -0.132291,0.03307 -0.297655,0.03307 h -0.165364 v -3.638014 -3.638014 z m 2.083589,0.959113 h -1.422132 v 1.15755 1.190623 h 1.455205 1.422133 v -0.92604 q 0,-0.92604 0,-1.190623 l -0.03307,-0.23151 z m 4.266398,0 H 44.59134 v 1.15755 1.190623 h 1.554424 1.587497 v -1.190623 -1.15755 z m -4.233325,3.00963 h -1.455205 l -0.03307,1.124477 q 0,1.124477 -0.03307,1.190622 l -0.03307,0.09922 h 1.488279 1.488278 v -1.223696 -1.190622 z m 4.233325,0 H 44.59134 v 0.826821 q 0,0.793748 -0.06615,1.058331 -0.06615,0.23151 -0.165365,0.396874 l -0.09922,0.132292 h 1.719788 1.752861 v -1.223696 -1.190622 z m -7.573683,3.902596 h 0.69453 v 1.885153 q 0,1.885152 -0.06615,2.116662 -0.06614,0.198437 -0.198437,0.496093 -0.132291,0.264583 -0.264582,0.429947 -0.165365,0.165364 -0.330729,0.264583 -0.132291,0.09922 -0.363801,0.09922 H 37.844479 V 21.298168 18.65234 Z m 2.678901,0.03307 h 0.727603 v 1.554424 q 0,1.554424 -0.03307,1.819007 -0.03307,0.330728 -0.06615,0.363801 v 0.132292 h 2.348173 2.381245 v -1.289842 -1.289841 h 0.69453 0.727603 v 1.15755 q -0.03307,1.190623 -0.132292,1.455205 -0.06615,0.23151 -0.132291,0.396875 -0.06615,0.132291 -0.132291,0.23151 0,0.03307 -0.09922,0.09922 -0.06615,0.09922 -0.132291,0.165364 -0.165365,0.165365 -0.23151,0.23151 -0.132292,0.03307 -0.363802,0.03307 h -0.198437 v -0.297655 -0.297656 h -2.513537 q -2.513536,0 -2.513536,0.03307 0,0.03307 -0.23151,0.264583 -0.198437,0.23151 -0.297656,0.264582 -0.09922,0.03307 -0.297656,0.03307 h -0.198437 l -0.03307,-2.513536 q 0,-2.480464 0,-2.513537 0.03307,-0.06615 0.727603,-0.03307 z m 3.00963,-0.03307 h 0.727602 l -0.03307,0.992186 q 0,0.992185 -0.09922,1.256768 -0.09922,0.264583 -0.198437,0.46302 -0.09922,0.198437 -0.198437,0.330728 -0.132292,0.165365 -0.297656,0.264583 -0.132291,0.09922 -0.363801,0.09922 l -0.23151,-0.03307 -0.03307,-1.62057 q 0,-1.653642 0,-1.686715 0.03307,-0.06615 0.727603,-0.06615 z m 5.45702,0 h 0.727603 v 1.918226 q -0.03307,1.885152 -0.132291,2.149735 -0.06615,0.264583 -0.198438,0.529166 -0.132291,0.231509 -0.297655,0.396874 -0.132292,0.165364 -0.264583,0.23151 -0.132291,0.06614 -0.330729,0.06614 H 49.023102 V 21.298168 18.65234 Z"
         id="path3679" />
      <path
         d="m 87.949851,10.020326 0.628384,0.03307 v 0.727602 l 0.03307,0.727603 h 0.992185 1.025259 l 0.03307,-0.264583 v -0.264582 h 0.628384 0.628384 l -0.03307,2.976556 q 0,2.976557 -0.06615,3.174994 -0.06614,0.165364 -0.198437,0.330728 -0.09922,0.132292 -0.297655,0.23151 -0.198438,0.06615 -0.429947,0.06615 h -0.23151 v -0.330728 -0.363802 l -1.025259,0.03307 h -1.025258 l -0.03307,0.496093 q -0.03307,0.529166 -0.06615,0.628384 -0.03307,0.09922 -0.03307,0.165364 0,0.03307 0.760676,0.03307 0.793748,0 0.859894,-0.03307 0.06615,-0.06615 0.92604,-0.06615 l 0.892967,0.03307 -0.628384,0.760676 q -0.628384,0.826821 -0.892967,1.091404 -0.264583,0.297656 -0.69453,0.727603 -0.429947,0.363801 -0.595311,0.496093 -0.132292,0.132291 -0.132292,0.165364 0,0.03307 0.264583,0.165364 0.429947,0.23151 0.959113,0.496093 0.760675,0.396874 1.256768,0.595311 0.595311,0.23151 0.628384,0.264583 l 0.06615,0.03307 -0.09922,0.165364 q -0.03307,0.06615 -0.46302,0.727603 -0.330728,0.595311 -0.363801,0.595311 -0.03307,0 -0.496093,-0.23151 -0.496092,-0.264582 -0.959112,-0.529165 -0.429947,-0.264583 -0.793749,-0.529166 -0.264583,-0.165364 -0.793748,-0.562238 l -0.429947,-0.363802 -0.297656,0.198437 q -0.396874,0.23151 -0.595311,0.330729 -0.165365,0.09922 -0.92604,0.496093 -0.661457,0.330728 -1.322914,0.595311 -0.595312,0.264583 -1.124477,0.429947 -0.496093,0.198437 -0.529166,0.198437 -0.03307,0 -0.132291,-0.198437 -0.06615,-0.198437 -0.03307,-0.198437 0,0 0.264583,-0.132291 0.23151,-0.06615 0.760675,-0.330729 0.496093,-0.264583 1.025259,-0.628384 0.595311,-0.396874 0.959112,-0.661457 0.297656,-0.23151 0.760676,-0.595312 0.330728,-0.297655 0.330728,-0.297655 0,-0.03307 -0.132291,-0.165364 -0.132291,-0.132292 -0.529166,-0.595312 -0.396874,-0.46302 -0.661457,-0.892967 -0.297655,-0.429947 -0.429947,-0.661457 l -0.132291,-0.23151 H 84.675638 84.311837 V 18.751559 18.42083 h 1.521351 1.488279 v -0.661457 -0.69453 H 86.4285 85.50246 l -0.06615,0.132292 q -0.03307,0.09922 -0.165364,0.264582 -0.09922,0.132292 -0.297656,0.198438 -0.165364,0.09922 -0.429947,0.09922 h -0.23151 v -3.340358 -3.340358 h 0.628384 0.628384 v 0.198437 0.23151 h 0.628385 0.595311 v 0.297656 0.330728 H 86.19699 l -0.628385,0.03307 v 0.826822 0.826821 h 0.628385 0.595311 v 0.330728 0.330729 H 86.19699 85.568605 v 0.959113 0.992185 h 0.892967 0.859895 v -3.208067 -3.208066 z m 1.686715,2.149735 q -1.025258,0 -1.058331,0.06615 0,0.03307 0,2.116662 l 0.03307,2.050517 1.025258,0.03307 h 1.025259 v -0.992185 -0.959113 h -0.793749 -0.760675 v -0.330729 -0.330728 h 0.760675 0.793749 v -0.826821 -0.826822 z m -2.083589,6.912226 h -1.951299 l 0.132292,0.132292 q 0.09922,0.09922 0.562238,0.529165 0.496093,0.396874 0.92604,0.727603 0.46302,0.330728 0.529166,0.330728 0.06615,0 0.661457,-0.595311 0.628384,-0.661457 0.859894,-0.859894 l 0.23151,-0.264583 z m -5.953114,-8.92967 h 0.727603 v 1.686716 1.686715 h 0.661457 0.661457 l -0.03307,0.330729 v 0.297655 h -0.628384 l -0.661457,0.03307 v 1.587497 q 0,1.554424 0,1.554424 0.03307,0 0.562238,-0.264583 0.529166,-0.297655 0.562239,-0.297655 0.03307,0 0.03307,0.46302 V 17.7263 l -0.562239,0.297656 -0.595311,0.330728 v 2.3151 l -0.03307,2.348173 -0.09922,0.297655 q -0.09922,0.297656 -0.23151,0.496093 -0.132292,0.198437 -0.297656,0.363801 -0.198437,0.132292 -0.363801,0.23151 -0.23151,0.09922 -0.297656,0.132292 h -0.132291 v -2.678901 q 0,-2.711974 -0.03307,-2.711974 -0.03307,0 -0.661457,0.330728 -0.628385,0.363802 -0.661457,0.363802 -0.03307,0 -0.03307,-0.46302 v -0.46302 l 0.562238,-0.297656 q 0.562239,-0.330728 0.69453,-0.396874 l 0.132292,-0.09922 v -1.951299 -1.984371 h -0.793749 -0.826821 v -0.330728 -0.330729 h 0.826821 0.793749 v -1.686715 -1.686716 z"
         id="path3681" />
      <path
         d="m 107.66127,10.053399 h 0.69453 v 0.826821 0.859894 h 1.91822 1.91823 v 0.330729 0.297655 l -1.91823,0.03307 h -1.88515 l -0.0331,0.264583 q -0.0331,0.23151 -0.0992,0.496093 -0.0992,0.264583 -0.16536,0.363801 -0.0331,0.06615 -0.0662,0.132292 -0.0331,0.03307 -0.0331,0.03307 h 2.01744 2.08359 q 0.0662,0 0.0331,-0.132291 -0.0331,-0.132291 0.0331,-0.132291 0.0661,-0.03307 0.69453,-0.06615 l 0.59531,-0.03307 0.0331,0.297656 q 0.0662,0.330728 0.16536,0.661457 0.0661,0.363801 0.16537,0.562238 0.0661,0.165364 0.13229,0.330729 0.0661,0.132291 0.0661,0.165364 0,0 -0.0661,0 -0.0331,0 -0.33073,-0.132291 -0.29765,-0.09922 -0.56224,-0.264583 -0.26458,-0.165364 -0.46302,-0.363802 l -0.16536,-0.23151 h -2.6789 -2.64583 l 0.19844,0.198438 q 0.23151,0.165364 0.33073,0.297655 l 0.13229,0.09922 -0.79375,0.595311 -0.76068,0.595311 0.0662,0.03307 q 0.0992,0 1.0914,-0.03307 l 0.99219,-0.06614 0.82682,-0.496093 q 0.82682,-0.496093 0.89297,-0.496093 0.0661,0 0.33072,0.46302 0.29766,0.46302 0.26459,0.496093 -0.0662,0.06615 -2.41432,1.422132 -0.62838,0.363802 -1.19062,0.69453 -0.52917,0.297656 -0.8599,0.496093 -0.29765,0.165364 -0.26458,0.198437 0,0 2.05052,-0.198437 2.05051,-0.198437 2.11666,-0.198437 0.0331,-0.03307 -0.0662,-0.09922 -0.0992,-0.09922 -0.46302,-0.297655 -0.23151,-0.132292 -0.29765,-0.165364 -0.0331,-0.03307 -0.0331,-0.132292 v -0.132291 l 0.39688,0.03307 q 0.39687,0 0.69453,0.09922 0.29765,0.06615 0.66146,0.264583 0.3638,0.165364 0.59531,0.330728 0.26458,0.198438 0.49609,0.429948 0.26458,0.23151 0.46302,0.463019 0.19844,0.23151 0.19844,0.264583 0,0.03307 -0.69453,0.429947 -0.66146,0.396875 -0.69453,0.396875 -0.0331,0 -0.13229,-0.363802 -0.1323,-0.330728 -0.16537,-0.396874 -0.0331,-0.06615 -1.42213,0.09922 -1.38906,0.132291 -1.42213,0.132291 -0.0331,0.03307 -0.0331,1.719788 0,1.686716 -0.0992,1.984371 -0.0662,0.297656 -0.16537,0.46302 -0.0992,0.198437 -0.19844,0.330729 -0.13229,0.132291 -0.29765,0.23151 -0.16537,0.132291 -0.42995,0.132291 h -0.26458 v -2.381245 q 0,-2.348173 0,-2.348173 0,0 -0.19844,0.03307 -0.19844,0 -0.66146,0.06615 -0.42994,0.03307 -0.79374,0.06615 l -1.68672,0.165364 -0.39687,0.264583 q -0.42995,0.23151 -0.46302,0.23151 0,0 -0.29766,-0.429947 -0.29766,-0.429947 -0.26458,-0.46302 0.0331,-0.03307 2.24895,-1.355987 2.21588,-1.322914 2.28203,-1.355987 l -0.39688,-0.03307 q -0.13229,0 -0.33072,0 -0.69453,0.03307 -0.92604,0.06615 -0.16537,0.03307 -0.52917,0.297655 -0.3638,0.264583 -0.42995,0.264583 -0.0331,0 -0.42994,-0.330728 -0.36381,-0.297656 -0.46302,-0.363802 -0.0331,-0.03307 0.0331,-0.06614 0.0661,-0.06615 0.26458,-0.23151 0.19844,-0.165365 0.49609,-0.396875 0.33073,-0.23151 0.89297,-0.628384 1.75286,-1.322914 1.78594,-1.355987 0,0 -0.26459,0 -0.23151,0 -0.69453,0 -0.42994,-0.03307 -0.99218,-0.03307 h -1.9513 l -0.19844,0.165365 q -0.19844,0.165364 -0.46302,0.330728 -0.26458,0.132292 -0.49609,0.23151 -0.26458,0.06615 -0.26458,0.06615 -0.0331,-0.03307 0.0992,-0.297656 0.16537,-0.330728 0.26459,-0.727603 0.0992,-0.429947 0.16536,-0.694529 l 0.0331,-0.297656 0.26459,0.03307 q 0.26458,0 0.66145,0.03307 0.29766,0 0.33073,0.03307 0.0661,0 0.0661,0.06615 -0.0331,0.06615 -0.0331,0.23151 0,0.132292 0.0331,0.132292 0,0.03307 1.9513,0.03307 h 1.9513 v -0.661457 -0.628384 h -2.08359 l -2.11667,-0.03307 V 12.03777 l -0.0331,-0.297656 h 2.11666 2.11667 V 10.88022 10.053399 Z m -3.30729,11.046332 h 0.69453 v 0.760676 q -0.0331,0.760675 -0.13229,1.025258 -0.0661,0.23151 -0.19844,0.429947 -0.13229,0.198437 -0.33072,0.330729 -0.16537,0.165364 -0.46302,0.165364 l -0.26459,0.03307 v -1.355987 -1.38906 z m 6.18463,0 h 0.69453 v 0.661457 q 0,0.595312 -0.0662,0.859894 -0.0331,0.264583 -0.13229,0.46302 -0.0992,0.198437 -0.26458,0.396874 -0.19844,0.198438 -0.33073,0.264583 -0.13229,0.09922 -0.3638,0.09922 h -0.23151 v -1.355987 -1.38906 z"
         id="path3683" />
    </g>
    <circle
       id="path31"
       cx="64.580482"
       cy="16.536459"
       r="7.2760415"
       style="fill:#0885ff;fill-opacity:1;stroke-width:0.264583" />
    <ellipse
       style="fill:#ffffff;fill-opacity:1;stroke-width:0.293807"
       id="path1230"
       cx="64.580681"
       cy="16.505604"
       rx="5.8584604"
       ry="5.8938851" />
    <circle
       style="fill:#0885ff;fill-opacity:1;stroke-width:0.264583"
       id="path1387"
       cx="60.751839"
       cy="16.626101"
       r="1.3229166" />
    <circle
       style="fill:#0885ff;fill-opacity:1;stroke-width:0.264583"
       id="path1387-0"
       cx="64.699738"
       cy="16.559303"
       r="1.3229166" />
    <circle
       style="fill:#0885ff;fill-opacity:1;stroke-width:0.264583"
       id="path1387-2"
       cx="68.583458"
       cy="16.600042"
       r="1.3229166" />
    <circle
       style="fill:#0885ff;fill-opacity:1;stroke-width:0.264583"
       id="path1387-1"
       cx="70.533607"
       cy="23.118469"
       r="1.3229166" />
  </g>
</svg>
