<?xml version="1.0" encoding="UTF-8" standalone="no"?>
<!-- Created with Inkscape (http://www.inkscape.org/) -->

<svg
   width="140"
   height="32"
   viewBox="0 0 37.041666 8.4666669"
   version="1.1"
   id="svg5"
   inkscape:version="1.1 (c68e22c387, 2021-05-23)"
   sodipodi:docname="mrdoc_search_2.svg"
   xmlns:inkscape="http://www.inkscape.org/namespaces/inkscape"
   xmlns:sodipodi="http://sodipodi.sourceforge.net/DTD/sodipodi-0.dtd"
   xmlns="http://www.w3.org/2000/svg"
   xmlns:svg="http://www.w3.org/2000/svg">
  <sodipodi:namedview
     id="namedview7"
     pagecolor="#ffffff"
     bordercolor="#666666"
     borderopacity="1.0"
     inkscape:pageshadow="2"
     inkscape:pageopacity="0.0"
     inkscape:pagecheckerboard="0"
     inkscape:document-units="mm"
     showgrid="true"
     units="px"
     inkscape:zoom="2.8008419"
     inkscape:cx="69.621925"
     inkscape:cy="31.062089"
     inkscape:window-width="1920"
     inkscape:window-height="986"
     inkscape:window-x="-11"
     inkscape:window-y="-11"
     inkscape:window-maximized="1"
     inkscape:current-layer="layer1">
    <inkscape:grid
       type="xygrid"
       id="grid9" />
  </sodipodi:namedview>
  <defs
     id="defs2" />
  <g
     inkscape:label="图层 1"
     inkscape:groupmode="layer"
     id="layer1">
    <g
       aria-label="觅思搜索"
       id="text453"
       style="font-size:7.40833px;line-height:1.25;font-family:xiaowei;-inkscape-font-specification:'xiaowei, Normal';fill:#333333;stroke-width:0.264583">
      <path
         d="m 8.119622,1.2358272 q 0.086816,0.043408 0.1591633,0.086816 0.086816,0.043408 0.2459797,0.1012858 0.1591633,0.043408 0.3472655,0.072347 0.1881021,0.028939 0.4485512,0.043408 0.2749185,0.014469 0.8102863,-0.028939 0.130224,-0.014469 0.47749,-0.043408 0.361735,-0.028939 0.491959,-0.043408 0.593245,-0.043408 0.983919,-0.072347 0.535368,-0.043408 0.578776,-0.043408 0.02894,0 0.02894,0.2459797 v 0.2315104 l -0.101286,0.014469 q -0.02894,0 -0.622184,0.057878 -0.520898,0.028939 -0.839225,0.057878 -0.911572,0.072347 -0.998388,0.086816 Q 9.4363369,2.0605827 9.3639899,2.0461133 9.2771735,2.0316439 9.1903572,2.0171745 9.1324796,2.0027051 8.9877856,1.9592969 8.8864999,1.9303581 8.7418059,1.8580111 8.6405202,1.8001336 8.5102956,1.7133172 8.3945405,1.6265008 8.2787853,1.5252151 8.1630301,1.4239293 8.1051526,1.3515823 8.0328056,1.264766 8.047275,1.2213578 l 0.014469,-0.043408 z m 1.4180006,1.0128576 q 0,0 0.086816,0.057878 0.086816,0.057878 0.1736327,0.1446939 0.086816,0.1012858 0.1302246,0.1881021 0.043408,0.086816 0.043408,0.2459797 0,0.1591634 -0.028939,0.1881022 Q 9.9282963,3.1023791 9.6099696,2.8853381 9.2771735,2.6682972 9.2771735,2.6682972 9.2627041,2.6538278 9.3929287,2.4512563 9.5231532,2.2486848 9.5376226,2.2486848 Z m 1.0562654,0.2025715 q 0.130225,-0.1881021 0.144694,-0.1881021 0.01447,-0.014469 0.101286,0.057878 0.08682,0.057878 0.173633,0.1446939 0.08682,0.086816 0.115755,0.1736327 0.04341,0.086816 0.05788,0.1736328 0.01447,0.086816 0,0.1591633 -0.01447,0.072347 -0.04341,0.1012858 -0.01447,0.028939 -0.347265,-0.1881022 -0.332796,-0.2170409 -0.332796,-0.2315103 0,-0.014469 0.130224,-0.2025715 z m 1.736328,-0.1302245 q 0.01447,0.014469 0.04341,0.043408 0.02894,0.014469 0.07235,0.043408 0.04341,0.028939 0.08682,0.057878 0.130225,0.1012858 0.144694,0.1157552 0,0 -0.04341,0.072347 -0.05788,0.072347 -0.144694,0.1591634 -0.115755,0.1012857 -0.202571,0.1446939 -0.08682,0.043408 -0.188103,0.057878 -0.08682,0 -0.173632,-0.014469 -0.07235,-0.028939 -0.08682,-0.043408 -0.02894,-0.014469 0.202572,-0.3472655 L 12.286808,2.292093 Z M 9.2337653,3.174726 H 9.479745 v 0.043408 0.057878 h 1.389062 1.389062 V 3.2326036 3.174726 h 0.245979 0.26045 l -0.01447,1.0707352 q 0,1.0562658 -0.04341,1.1575516 -0.02894,0.086816 -0.08682,0.1591633 -0.05788,0.086816 -0.130225,0.1302246 -0.08682,0.057878 -0.144694,0.072347 -0.05788,0.014469 -0.07235,0.014469 -0.01447,-0.014469 -0.01447,-1.1141433 V 3.5653997 H 10.868807 9.479745 v 0.8247555 q 0,0.8392248 -0.028939,0.9405106 -0.028939,0.086816 -0.072347,0.1736327 -0.028939,0.072347 -0.1157552,0.144694 -0.072347,0.072347 -0.1302245,0.1012857 -0.028939,0.014469 -0.086816,0.028939 H 9.002255 V 4.4769715 3.174726 Z m 1.6061027,0.6655922 q 0.347266,0 0.347266,0.014469 0.01447,0.014469 -0.01447,0.2315103 -0.05788,0.2315103 -0.101286,0.3617348 Q 11.02797,4.6216655 10.941154,4.824237 10.868807,5.0268085 10.767521,5.22938 10.651766,5.4753597 10.56495,5.6200537 10.434725,5.8226252 10.304501,5.9962579 10.174276,6.1843601 9.9861739,6.3579928 9.8125411,6.5316255 9.6678472,6.6473807 9.5376226,6.7486665 9.3929287,6.8499522 9.2482347,6.9367686 9.0456632,7.0380543 8.8286223,7.1393401 8.669459,7.1972177 8.524765,7.2406259 8.3656017,7.2840341 8.2353771,7.3274422 8.2064383,7.3129728 8.1774995,7.2985034 8.0617444,7.2985034 7.9459892,7.2840341 7.9315198,7.2695647 q 0,0 0.014469,-0.014469 0.014469,-0.014469 0.043408,-0.028939 0.043408,-0.014469 0.086816,-0.028939 Q 8.2064383,7.1393401 8.3945405,7.0525237 8.5392344,6.9801768 8.7273365,6.8644216 8.8864999,6.7631359 9.0456632,6.6329113 9.2048266,6.5171561 9.3784593,6.3579928 9.552092,6.1843601 9.6678472,6.0541355 9.7836023,5.9094416 9.8848881,5.7502782 10.015113,5.5477067 10.07299,5.4319516 q 0.08682,-0.144694 0.144694,-0.3038573 0.05788,-0.1591634 0.115755,-0.3327961 0.05788,-0.2025715 0.08682,-0.3327961 0.02894,-0.1591633 0.04341,-0.332796 0.01447,-0.1881022 0.02894,-0.2315103 v -0.057878 z m 0.47749,0.882633 h 0.24598 v 0.8826331 q 0,0.3617349 0,0.6366534 0.01447,0.2749184 0.01447,0.3038572 0.01447,0.072347 0.05788,0.1157552 0.04341,0.028939 0.101286,0.072347 0.05788,0.028939 0.94051,0.028939 0.882633,0 0.897103,0.028939 0,0.028939 -0.01447,0.072347 -0.01447,0.057878 -0.05788,0.1157552 -0.04341,0.043408 -0.130225,0.072347 -0.08682,0.028939 -0.46302,0.028939 -0.390674,0.014469 -0.940511,0 -0.535368,-0.028939 -0.622184,-0.057878 -0.08682,-0.028939 -0.159163,-0.1012858 -0.05788,-0.072347 -0.08682,-0.1302246 -0.01447,-0.072347 -0.01447,-1.0707351 l -0.01447,-0.9983883 z"
         id="path196" />
      <path
         d="m 16.251422,1.3805211 h 0.289388 v 0.072347 0.057878 h 1.591633 1.591633 v -0.057878 -0.057878 l 0.274919,-0.014469 h 0.289388 l -0.01447,1.3745925 v 1.3745925 l -0.04341,0.086816 q -0.02894,0.1012858 -0.08682,0.1736328 -0.04341,0.057878 -0.130225,0.1157551 -0.08682,0.057878 -0.188102,0.057878 h -0.101286 v -0.057878 -0.057878 h -1.692919 q -1.692919,0 -1.736327,0.043408 -0.04341,0.028939 -0.115755,0.057878 -0.05788,0.014469 -0.130225,0.014469 h -0.07235 V 2.9721545 1.3805211 Z m 0.911572,0.4196125 H 16.54081 v 0.5064288 0.5208982 h 0.636653 0.622184 V 2.4223175 q 0,-0.405143 0,-0.5208982 l -0.01447,-0.1012857 z m 1.866551,0 h -0.680061 v 0.5064288 0.5208982 h 0.680061 0.694531 V 2.3065624 1.8001336 Z M 17.177463,3.1168485 H 16.54081 l -0.01447,0.4919594 q 0,0.4919594 -0.01447,0.5208982 l -0.01447,0.043408 h 0.651123 0.651123 V 3.6377467 3.1168485 Z m 1.852082,0 h -0.680061 v 0.3617348 q 0,0.3472655 -0.02894,0.4630206 -0.02894,0.1012858 -0.07235,0.1736328 l -0.04341,0.057878 h 0.752408 0.766878 V 3.6377467 3.1168485 Z M 15.716054,4.824237 h 0.303857 v 0.8247555 q 0,0.8247555 -0.02894,0.9260412 -0.02894,0.086816 -0.08682,0.2170409 -0.05788,0.1157552 -0.115755,0.1881022 -0.07235,0.072347 -0.144694,0.1157551 -0.05788,0.043408 -0.159163,0.043408 h -0.08682 V 5.9817886 4.824237 Z m 1.172021,0.014469 h 0.318327 v 0.6800615 q 0,0.6800616 -0.01447,0.7958167 -0.01447,0.144694 -0.02894,0.1591634 v 0.057878 h 1.027327 1.041796 V 5.9673192 5.4030128 h 0.303857 0.318327 v 0.5064288 q -0.01447,0.5208982 -0.05788,0.6366533 -0.02894,0.1012858 -0.05788,0.1736328 -0.02894,0.057878 -0.05788,0.1012857 0,0.014469 -0.04341,0.043408 -0.02894,0.043408 -0.05788,0.072347 -0.07235,0.072347 -0.101285,0.1012857 -0.05788,0.014469 -0.159164,0.014469 h -0.08682 V 6.9222992 6.7920746 h -1.099674 q -1.099674,0 -1.099674,0.014469 0,0.014469 -0.101286,0.1157552 -0.08682,0.1012858 -0.130224,0.1157551 -0.04341,0.014469 -0.130225,0.014469 h -0.08682 l -0.01447,-1.0996739 q 0,-1.0852046 0,-1.099674 0.01447,-0.028939 0.318327,-0.014469 z M 18.20479,4.824237 h 0.318327 l -0.01447,0.4340818 q 0,0.4340819 -0.04341,0.549837 -0.04341,0.1157552 -0.08682,0.2025715 -0.04341,0.086816 -0.08682,0.144694 -0.05788,0.072347 -0.130224,0.1157551 -0.05788,0.043408 -0.159164,0.043408 l -0.101285,-0.014469 -0.01447,-0.7090003 q 0,-0.7234697 0,-0.7379391 0.01447,-0.028939 0.318327,-0.028939 z m 2.38745,0 h 0.318327 v 0.8392249 q -0.01447,0.8247555 -0.05788,0.9405106 -0.02894,0.1157552 -0.08682,0.2315103 -0.05788,0.1012858 -0.130225,0.1736328 -0.05788,0.072347 -0.115755,0.1012857 -0.05788,0.028939 -0.144694,0.028939 h -0.08682 V 5.9817886 4.824237 Z"
         id="path198" />
      <path
         d="m 26.539161,1.047725 0.274919,0.014469 v 0.3183267 l 0.01447,0.3183267 h 0.434082 0.448551 l 0.01447,-0.1157552 V 1.4673375 h 0.274919 0.274918 l -0.01447,1.3022455 q 0,1.3022455 -0.02894,1.3890619 -0.02894,0.072347 -0.08682,0.1446939 -0.04341,0.057878 -0.130225,0.1012858 -0.08682,0.028939 -0.188102,0.028939 H 27.725651 V 4.2888694 4.1297061 L 27.2771,4.1441755 h -0.448551 l -0.01447,0.2170409 q -0.01447,0.2315103 -0.02894,0.2749185 -0.01447,0.043408 -0.01447,0.072347 0,0.014469 0.332796,0.014469 0.347266,0 0.376205,-0.014469 0.02894,-0.028939 0.405143,-0.028939 l 0.390673,0.014469 -0.274918,0.3327961 q -0.274919,0.3617349 -0.390674,0.47749 -0.115755,0.1302246 -0.303857,0.3183267 -0.188102,0.1591634 -0.260449,0.2170409 -0.05788,0.057878 -0.05788,0.072347 0,0.014469 0.115755,0.072347 0.188103,0.1012857 0.419613,0.2170409 0.332796,0.1736327 0.549837,0.2604491 0.260449,0.1012858 0.274918,0.1157551 l 0.02894,0.014469 -0.04341,0.072347 q -0.01447,0.028939 -0.202571,0.3183267 -0.144694,0.2604491 -0.159164,0.2604491 -0.01447,0 -0.217041,-0.1012858 Q 27.537549,7.2261565 27.334978,7.1104013 27.146876,6.9946462 26.987712,6.878891 26.871957,6.806544 26.640447,6.6329113 L 26.452345,6.473748 26.32212,6.5605643 q -0.173633,0.1012858 -0.260449,0.144694 -0.07235,0.043408 -0.405143,0.2170409 -0.289388,0.1446939 -0.578776,0.2604491 -0.260449,0.1157551 -0.491959,0.1881021 -0.217041,0.086816 -0.23151,0.086816 -0.01447,0 -0.05788,-0.086816 -0.02894,-0.086816 -0.01447,-0.086816 0,0 0.115755,-0.057878 0.101285,-0.028939 0.332796,-0.144694 Q 24.947528,6.9657074 25.179038,6.806544 25.439487,6.6329113 25.59865,6.5171561 25.728875,6.4158704 25.931447,6.256707 26.07614,6.1264825 26.07614,6.1264825 q 0,-0.014469 -0.05788,-0.072347 -0.05788,-0.057878 -0.23151,-0.2604491 Q 25.61312,5.5911149 25.497365,5.4030128 25.36714,5.2149106 25.309263,5.1136249 L 25.251385,5.0123391 H 25.106691 24.947528 V 4.8676452 4.7229512 h 0.665592 0.651123 V 4.4335633 4.1297061 h -0.390674 -0.405143 l -0.02894,0.057878 q -0.01447,0.043408 -0.07235,0.1157552 -0.04341,0.057878 -0.130224,0.086816 -0.07235,0.043408 -0.188103,0.043408 H 24.947528 V 2.9721545 1.5107457 h 0.274918 0.274919 v 0.086816 0.1012858 h 0.274918 0.260449 v 0.1302245 0.144694 h -0.260449 l -0.274918,0.014469 v 0.3617348 0.3617349 h 0.274918 0.260449 v 0.1446939 0.144694 h -0.260449 -0.274918 v 0.4196124 0.4340819 h 0.390673 0.376205 V 2.4512563 1.047725 Z M 27.2771,1.9882357 q -0.448551,0 -0.46302,0.028939 0,0.014469 0,0.9260412 l 0.01447,0.8971025 0.448551,0.014469 h 0.448551 V 3.4207057 3.0010933 H 27.378386 27.04559 V 2.8563993 2.7117054 h 0.332796 0.347265 V 2.3499705 1.9882357 Z m -0.911572,3.0241034 h -0.853694 l 0.05788,0.057878 q 0.04341,0.043408 0.245979,0.2315103 0.217041,0.1736327 0.405143,0.3183267 0.202572,0.1446939 0.231511,0.1446939 0.02894,0 0.289388,-0.2604491 0.274918,-0.2893879 0.376204,-0.3762042 L 27.219223,5.0123391 Z M 23.761037,1.1056026 h 0.318327 v 0.7379391 0.7379392 h 0.289388 0.289388 l -0.01447,0.1446939 v 0.1302245 h -0.274918 l -0.289388,0.014469 v 0.694531 q 0,0.6800615 0,0.6800615 0.01447,0 0.24598,-0.1157551 0.23151,-0.1302246 0.245979,-0.1302246 0.01447,0 0.01447,0.2025715 v 0.217041 l -0.24598,0.1302245 -0.260449,0.1446939 v 1.0128577 l -0.01447,1.027327 -0.04341,0.1302245 q -0.04341,0.1302246 -0.101285,0.2170409 -0.05788,0.086816 -0.130225,0.1591634 -0.08682,0.057878 -0.159163,0.1012857 -0.101286,0.043408 -0.130225,0.057878 h -0.05788 V 6.2277683 q 0,-1.1864904 -0.01447,-1.1864904 -0.01447,0 -0.289388,0.144694 -0.274918,0.1591633 -0.289387,0.1591633 -0.01447,0 -0.01447,-0.2025715 V 4.9399922 l 0.24598,-0.1302246 q 0.24598,-0.1446939 0.303857,-0.1736327 l 0.05788,-0.043408 V 3.7390324 2.8708687 H 23.095445 22.73371 V 2.7261748 2.5814809 h 0.361735 0.347266 V 1.8435417 1.1056026 Z"
         id="path200" />
      <path
         d="m 33.006981,1.0621944 h 0.303858 v 0.3617349 0.3762043 h 0.839225 0.839224 V 1.9448275 2.075052 l -0.839224,0.014469 h -0.824756 l -0.01447,0.1157552 q -0.01447,0.1012858 -0.04341,0.2170409 -0.04341,0.1157552 -0.07235,0.1591634 -0.01447,0.028939 -0.02894,0.057878 -0.01447,0.014469 -0.01447,0.014469 h 0.882633 0.911572 q 0.02894,0 0.01447,-0.057878 -0.01447,-0.057878 0.01447,-0.057878 0.02894,-0.014469 0.303857,-0.028939 l 0.260449,-0.014469 0.01447,0.1302245 q 0.02894,0.144694 0.07235,0.2893879 0.02894,0.1591634 0.07235,0.2459797 0.02894,0.072347 0.05788,0.144694 0.02894,0.057878 0.02894,0.072347 0,0 -0.02894,0 -0.01447,0 -0.144694,-0.057878 -0.130224,-0.043408 -0.245979,-0.1157552 -0.115755,-0.072347 -0.202572,-0.1591633 l -0.07235,-0.1012858 h -1.172021 -1.157551 l 0.08682,0.086816 q 0.101286,0.072347 0.144694,0.1302245 l 0.05788,0.043408 -0.347266,0.2604491 -0.332796,0.2604491 0.02894,0.014469 q 0.04341,0 0.47749,-0.014469 l 0.434082,-0.028939 0.361735,-0.2170409 q 0.361734,-0.2170409 0.390673,-0.2170409 0.02894,0 0.144694,0.2025715 0.130225,0.2025715 0.115755,0.2170409 -0.02894,0.028939 -1.056266,0.622184 -0.274918,0.1591633 -0.520898,0.3038573 -0.23151,0.1302245 -0.376204,0.2170409 -0.130225,0.072347 -0.115755,0.086816 0,0 0.897102,-0.086816 0.897103,-0.086816 0.926042,-0.086816 0.01447,-0.014469 -0.02894,-0.043408 -0.04341,-0.043408 -0.202572,-0.1302245 -0.101285,-0.057878 -0.130224,-0.072347 -0.01447,-0.014469 -0.01447,-0.057878 v -0.057878 l 0.173633,0.014469 q 0.173633,0 0.303857,0.043408 0.130225,0.028939 0.289388,0.1157552 0.159164,0.072347 0.260449,0.1446939 0.115755,0.086816 0.217041,0.1881022 0.115755,0.1012857 0.202572,0.2025715 0.08682,0.1012858 0.08682,0.1157552 0,0.014469 -0.303857,0.1881021 -0.289388,0.1736327 -0.303857,0.1736327 -0.01447,0 -0.05788,-0.1591633 -0.05788,-0.144694 -0.07235,-0.1736328 -0.01447,-0.028939 -0.622184,0.043408 -0.607715,0.057878 -0.622184,0.057878 -0.01447,0.014469 -0.01447,0.7524085 0,0.7379391 -0.04341,0.8681637 -0.02894,0.1302245 -0.07235,0.2025715 -0.04341,0.086816 -0.08682,0.1446939 -0.05788,0.057878 -0.130224,0.1012858 -0.07235,0.057878 -0.188102,0.057878 H 32.601838 V 6.4158704 q 0,-1.027327 0,-1.027327 0,0 -0.08682,0.014469 -0.08682,0 -0.289388,0.028939 -0.188102,0.014469 -0.347265,0.028939 l -0.737939,0.072347 -0.173633,0.1157552 q -0.188102,0.1012857 -0.202572,0.1012857 0,0 -0.130224,-0.1881021 -0.130225,-0.1881021 -0.115755,-0.2025715 0.01447,-0.014469 0.983918,-0.5932452 0.96945,-0.5787758 0.998389,-0.5932452 L 32.32692,4.1586449 q -0.05788,0 -0.144694,0 -0.303857,0.014469 -0.405143,0.028939 -0.07235,0.014469 -0.23151,0.1302246 -0.159164,0.1157551 -0.188103,0.1157551 -0.01447,0 -0.188102,-0.1446939 -0.159163,-0.1302245 -0.202571,-0.1591633 -0.01447,-0.014469 0.01447,-0.028939 0.02894,-0.028939 0.115755,-0.1012858 0.08682,-0.072347 0.217041,-0.1736327 0.144694,-0.1012858 0.390674,-0.2749185 0.766878,-0.5787758 0.781347,-0.5932452 0,0 -0.115755,0 -0.101286,0 -0.303857,0 -0.188102,-0.014469 -0.434082,-0.014469 h -0.853694 l -0.08682,0.072347 q -0.08682,0.072347 -0.202571,0.1446939 -0.115755,0.057878 -0.217041,0.1012858 -0.115755,0.028939 -0.115755,0.028939 -0.01447,-0.014469 0.04341,-0.1302246 0.07235,-0.1446939 0.115755,-0.3183266 0.04341,-0.1881022 0.07235,-0.3038573 l 0.01447,-0.1302246 0.115756,0.014469 q 0.115755,0 0.289387,0.014469 0.130225,0 0.144694,0.014469 0.02894,0 0.02894,0.028939 -0.01447,0.028939 -0.01447,0.1012858 0,0.057878 0.01447,0.057878 0,0.014469 0.853694,0.014469 h 0.853695 V 2.3644399 2.0895214 H 31.777083 L 30.851042,2.075052 V 1.9303581 l -0.01447,-0.1302245 h 0.926041 0.926042 V 1.4239293 1.0621944 Z m -1.446939,4.8327778 h 0.303857 v 0.3327961 q -0.01447,0.332796 -0.05788,0.4485512 -0.02894,0.1012857 -0.08682,0.1881021 -0.05788,0.086816 -0.144694,0.144694 -0.07235,0.072347 -0.202571,0.072347 l -0.115755,0.014469 V 6.5026868 5.8949722 Z m 2.705777,0 h 0.303857 v 0.2893879 q 0,0.2604491 -0.02894,0.3762042 -0.01447,0.1157552 -0.05788,0.2025716 -0.04341,0.086816 -0.115756,0.1736327 -0.08682,0.086816 -0.144693,0.1157551 -0.05788,0.043408 -0.159164,0.043408 H 33.961961 V 6.5026868 5.8949722 Z"
         id="path202" />
    </g>
  </g>
  <g
     inkscape:groupmode="layer"
     id="layer2"
     inkscape:label="放大镜">
    <ellipse
       style="fill:#0885ff;fill-opacity:1;stroke-width:0.262296"
       id="path3214"
       cx="3.730648"
       cy="4.1152511"
       rx="2.8603187"
       ry="2.9104166" />
    <ellipse
       style="fill:#ffffff;fill-opacity:1;stroke-width:0.371418"
       id="path3349"
       cx="3.7463393"
       cy="4.1379991"
       rx="2.3097458"
       ry="2.3293169" />
    <ellipse
       style="fill:#0885ff;fill-opacity:1;stroke-width:0.183574"
       id="path3609"
       cx="2.5123682"
       cy="4.2303929"
       rx="0.45271677"
       ry="0.46524125" />
    <ellipse
       style="fill:#0885ff;fill-opacity:1;stroke-width:0.202789"
       id="path3609-4"
       cx="5.9639711"
       cy="6.7483482"
       rx="0.51116437"
       ry="0.50281471" />
    <ellipse
       style="fill:#0885ff;fill-opacity:1;stroke-width:0.183574"
       id="path3609-5"
       cx="3.6875968"
       cy="4.2303929"
       rx="0.45271677"
       ry="0.46524125" />
    <ellipse
       style="fill:#0885ff;fill-opacity:1;stroke-width:0.183574"
       id="path3609-7"
       cx="4.8852677"
       cy="4.2251811"
       rx="0.45271677"
       ry="0.46524125" />
  </g>
</svg>
