<svg height="512pt" viewBox="0 -35 512 512" width="512pt" xmlns="http://www.w3.org/2000/svg"><path d="m32.261719 19.773438h-21.855469c-5.746094 0-10.40625 4.660156-10.40625 10.40625v326.761718c0 5.75 4.660156 10.410156 10.40625 10.410156h245.59375v-329.886718h-45.789062l-16.648438-17.691406zm0 0" fill="#7ae57d"/><path d="m238.308594 37.464844v301.789062c0 5.746094-4.660156 10.40625-10.40625 10.40625h-227.902344v7.285156c0 5.746094 4.660156 10.40625 10.40625 10.40625h245.59375v-329.886718zm0 0" fill="#66d166"/><path d="m256 335.089844-16.902344-17.898438c-11.792968-12.488281-28.214844-19.566406-45.394531-19.566406h-161.441406v-287.21875c0-5.746094 4.65625-10.40625 10.40625-10.40625h151.035156c17.179687 0 33.601563 7.078125 45.394531 19.566406l16.902344 17.898438zm0 0" fill="#ddf5ff"/><path d="m239.351562 317.460938 16.648438 17.628906v-297.625l-16.648438-17.628906zm0 0" fill="#c1e9f4"/><path d="m32.261719 297.625v27.058594c0 5.746094 4.65625 10.40625 10.40625 10.40625h213.332031l-16.902344-17.898438c-11.792968-12.488281-28.214844-19.566406-45.394531-19.566406zm0 0" fill="#c1e9f4"/><path d="m479.738281 19.773438h21.855469c5.746094 0 10.40625 4.65625 10.40625 10.40625v326.761718c0 5.75-4.660156 10.410156-10.40625 10.410156h-245.59375v-329.886718h45.789062l16.648438-17.691406zm0 0" fill="#7ae57d"/><path d="m495.351562 19.773438v319.480468c0 5.746094-4.660156 10.402344-10.40625 10.402344h-228.945312v17.691406h245.59375c5.746094 0 10.40625-4.65625 10.40625-10.40625v-326.761718c0-5.746094-4.660156-10.40625-10.40625-10.40625zm0 0" fill="#66d166"/><path d="m256 335.089844 16.902344-17.898438c11.792968-12.488281 28.214844-19.566406 45.394531-19.566406h161.441406v-287.21875c0-5.746094-4.65625-10.40625-10.402343-10.40625h-151.039063c-17.179687 0-33.601563 7.078125-45.394531 19.566406l-16.902344 17.898438zm0 0" fill="#ddf5ff"/><path d="m464.128906 0v297.625h15.609375v-287.21875c0-5.746094-4.65625-10.40625-10.402343-10.40625zm0 0" fill="#c1e9f4"/><path d="m479.738281 297.625v27.058594c0 5.746094-4.65625 10.40625-10.402343 10.40625h-213.335938l16.902344-17.898438c11.792968-12.488281 28.214844-19.566406 45.394531-19.566406zm0 0" fill="#c1e9f4"/><path d="m266.40625 441.234375h-20.8125c-5.746094 0-10.40625-4.65625-10.40625-10.40625v-173.789063h41.625v173.789063c0 5.75-4.660156 10.40625-10.40625 10.40625zm0 0" fill="#636363"/><path d="m260.164062 257.039062h-24.976562v33.640626c6.769531 1.140624 13.722656 1.742187 20.8125 1.742187 1.394531 0 2.777344-.039063 4.164062-.085937v148.898437h6.242188c5.746094 0 10.40625-4.65625 10.40625-10.40625v-173.789063zm0 0" fill="#494949"/><path d="m360.066406 167.546875c0 57.472656-46.59375 104.0625-104.066406 104.0625s-104.066406-46.589844-104.066406-104.0625c0-57.476563 46.59375-104.066406 104.066406-104.066406s104.066406 46.589843 104.066406 104.066406zm0 0" fill="#636363"/><path d="m323.070312 87.984375c15.289063 18.113281 24.507813 41.515625 24.507813 67.074219 0 57.472656-46.59375 104.0625-104.066406 104.0625-25.558594 0-48.957031-9.21875-67.070313-24.503906 19.085938 22.621093 47.644532 36.992187 79.558594 36.992187 57.472656 0 104.066406-46.589844 104.066406-104.0625 0-31.917969-14.375-60.472656-36.996094-79.5625zm0 0" fill="#494949"/><path d="m328.847656 167.546875c0 40.230469-32.617187 72.84375-72.847656 72.84375s-72.847656-32.613281-72.847656-72.84375c0-40.234375 32.617187-72.847656 72.847656-72.847656s72.847656 32.613281 72.847656 72.847656zm0 0" fill="#8db0ff"/></svg>