<svg xmlns="http://www.w3.org/2000/svg" xmlns:xlink="http://www.w3.org/1999/xlink" contentStyleType="text/css" height="717px" preserveAspectRatio="none" style="width:1047px;height:717px;background:#FFFFFF;" version="1.1" viewBox="0 0 1047 717" width="1047px" zoomAndPan="magnify"><defs/><g><!--cluster 11be20911658e8bec317a5e8928cf0ad--><g id="cluster_11be20911658e8bec317a5e8928cf0ad"><polygon fill="none" points="16,48.59,26,38.59,430,38.59,430,599.26,420,609.26,16,609.26,16,48.59" style="stroke:#181818;stroke-width:1.0;"/><line style="stroke:#181818;stroke-width:1.0;" x1="420" x2="430" y1="48.59" y2="38.59"/><line style="stroke:#181818;stroke-width:1.0;" x1="16" x2="420" y1="48.59" y2="48.59"/><line style="stroke:#181818;stroke-width:1.0;" x1="420" x2="420" y1="48.59" y2="609.26"/><text fill="#000000" font-family="sans-serif" font-size="14" font-weight="bold" lengthAdjust="spacing" textLength="49" x="194.5" y="64.5851">Mrdoc</text></g><!--cluster 81c3b080dad537de7e10e0987a4bf52e--><g id="cluster_81c3b080dad537de7e10e0987a4bf52e"><polygon fill="none" points="522,16,532,6,972,6,972,599.26,962,609.26,522,609.26,522,16" style="stroke:#181818;stroke-width:1.0;"/><line style="stroke:#181818;stroke-width:1.0;" x1="962" x2="972" y1="16" y2="6"/><line style="stroke:#181818;stroke-width:1.0;" x1="522" x2="962" y1="16" y2="16"/><line style="stroke:#181818;stroke-width:1.0;" x1="962" x2="962" y1="16" y2="609.26"/><text fill="#000000" font-family="sans-serif" font-size="14" font-weight="bold" lengthAdjust="spacing" textLength="45" x="720.5" y="31.9951">Mysql</text></g><!--entity 9a9e788ff02c4144ef7cb2dda952e3b8--><g id="elem_9a9e788ff02c4144ef7cb2dda952e3b8"><rect fill="#F1F1F1" height="127.7813" rx="2.5" ry="2.5" style="stroke:#181818;stroke-width:0.5;" width="381" x="32.5" y="78.59"/><rect fill="#F1F1F1" height="10" style="stroke:#181818;stroke-width:0.5;" width="15" x="393.5" y="83.59"/><rect fill="#F1F1F1" height="2" style="stroke:#181818;stroke-width:0.5;" width="4" x="391.5" y="85.59"/><rect fill="#F1F1F1" height="2" style="stroke:#181818;stroke-width:0.5;" width="4" x="391.5" y="89.59"/><text fill="#000000" font-family="sans-serif" font-size="14" font-weight="bold" lengthAdjust="spacing" textLength="102" x="47.5" y="111.5851">mrdoc-mysql</text><text fill="#000000" font-family="sans-serif" font-size="14" lengthAdjust="spacing" textLength="4" x="47.5" y="127.882">&#160;</text><text fill="#000000" font-family="sans-serif" font-size="14" lengthAdjust="spacing" textLength="341" x="47.5" y="144.1789">image: jonnyan404/mrdoc-nginx:0.6.6-with-mysql</text><text fill="#000000" font-family="sans-serif" font-size="14" lengthAdjust="spacing" textLength="99" x="47.5" y="160.4757">restart: always</text><text fill="#000000" font-family="sans-serif" font-size="14" lengthAdjust="spacing" textLength="224" x="47.5" y="176.7726">environment: TZ=Asia/Shanghai</text><text fill="#000000" font-family="sans-serif" font-size="14" lengthAdjust="spacing" textLength="4" x="47.5" y="193.0695">&#160;</text></g><!--entity c494c50a1f54ad1a16de9cf767fad1fb--><g id="elem_c494c50a1f54ad1a16de9cf767fad1fb"><ellipse cx="360" cy="328.97" fill="#F1F1F1" rx="8" ry="8" style="stroke:#181818;stroke-width:0.5;"/><text fill="#000000" font-family="sans-serif" font-size="14" lengthAdjust="spacing" textLength="45" x="337.5" y="358.9651">10086</text></g><!--entity 14beb31cf4ff090d69aea984e1bd0520--><g id="elem_14beb31cf4ff090d69aea984e1bd0520"><rect fill="#F1F1F1" height="39.2969" rx="2.5" ry="2.5" style="stroke:#181818;stroke-width:0.5;" width="158" x="40" y="553.97"/><polygon fill="#F1F1F1" points="181,558.97,181,572.97,193,572.97,193,564.97,187,558.97,181,558.97" style="stroke:#181818;stroke-width:0.5;"/><line style="stroke:#181818;stroke-width:0.5;" x1="187" x2="187" y1="558.97" y2="564.97"/><line style="stroke:#181818;stroke-width:0.5;" x1="193" x2="187" y1="564.97" y2="564.97"/><text fill="#000000" font-family="sans-serif" font-size="14" lengthAdjust="spacing" textLength="128" x="50" y="579.9651">/app/MrDoc/config</text></g><!--entity 3906db9e419cbd32ad3c85bd6adc3a4b--><g id="elem_3906db9e419cbd32ad3c85bd6adc3a4b"><rect fill="#F1F1F1" height="39.2969" rx="2.5" ry="2.5" style="stroke:#181818;stroke-width:0.5;" width="158" x="241" y="553.97"/><polygon fill="#F1F1F1" points="382,558.97,382,572.97,394,572.97,394,564.97,388,558.97,382,558.97" style="stroke:#181818;stroke-width:0.5;"/><line style="stroke:#181818;stroke-width:0.5;" x1="388" x2="388" y1="558.97" y2="564.97"/><line style="stroke:#181818;stroke-width:0.5;" x1="394" x2="388" y1="564.97" y2="564.97"/><text fill="#000000" font-family="sans-serif" font-size="14" lengthAdjust="spacing" textLength="128" x="251" y="579.9651">/app/MrDoc/media</text></g><!--entity 0774aaaf4ef7b1873292e895fd8899ac--><g id="elem_0774aaaf4ef7b1873292e895fd8899ac"><rect fill="#F1F1F1" height="192.9688" rx="2.5" ry="2.5" style="stroke:#181818;stroke-width:0.5;" width="418" x="538" y="46"/><rect fill="#F1F1F1" height="10" style="stroke:#181818;stroke-width:0.5;" width="15" x="936" y="51"/><rect fill="#F1F1F1" height="2" style="stroke:#181818;stroke-width:0.5;" width="4" x="934" y="53"/><rect fill="#F1F1F1" height="2" style="stroke:#181818;stroke-width:0.5;" width="4" x="934" y="57"/><text fill="#000000" font-family="sans-serif" font-size="14" font-weight="bold" lengthAdjust="spacing" textLength="142" x="553" y="78.9951">mysql-with-mrdoc</text><text fill="#000000" font-family="sans-serif" font-size="14" lengthAdjust="spacing" textLength="4" x="553" y="95.292">&#160;</text><text fill="#000000" font-family="sans-serif" font-size="14" lengthAdjust="spacing" textLength="118" x="553" y="111.5889">image: mysql:5.7</text><text fill="#000000" font-family="sans-serif" font-size="14" lengthAdjust="spacing" textLength="99" x="553" y="127.8857">restart: always</text><text fill="#000000" font-family="sans-serif" font-size="14" lengthAdjust="spacing" textLength="224" x="553" y="144.1826">environment: TZ=Asia/Shanghai</text><text fill="#000000" font-family="sans-serif" font-size="14" lengthAdjust="spacing" textLength="378" x="553" y="160.4795">environment: MYSQL_ROOT_PASSWORD=Jonnyan404!</text><text fill="#000000" font-family="sans-serif" font-size="14" lengthAdjust="spacing" textLength="282" x="553" y="176.7764">environment: MYSQL_DATABASE=mrdoc</text><text fill="#000000" font-family="sans-serif" font-size="14" lengthAdjust="spacing" textLength="282" x="553" y="193.0732">environment: MYSQL_USER=jonnyan404</text><text fill="#000000" font-family="sans-serif" font-size="14" lengthAdjust="spacing" textLength="351" x="553" y="209.3701">environment: MYSQL_PASSWORD=www.mrdoc.fun</text><text fill="#000000" font-family="sans-serif" font-size="14" lengthAdjust="spacing" textLength="4" x="553" y="225.667">&#160;</text></g><!--entity 56d413f1a16ecf6273b747ab3ec85f55--><g id="elem_56d413f1a16ecf6273b747ab3ec85f55"><ellipse cx="869" cy="328.97" fill="#F1F1F1" rx="8" ry="8" style="stroke:#181818;stroke-width:0.5;"/><text fill="#000000" font-family="sans-serif" font-size="14" lengthAdjust="spacing" textLength="36" x="851" y="358.9651">3306</text></g><!--entity 98399632ea7e7ee0ad6ee6e4295513da--><g id="elem_98399632ea7e7ee0ad6ee6e4295513da"><rect fill="#F1F1F1" height="39.2969" rx="2.5" ry="2.5" style="stroke:#181818;stroke-width:0.5;" width="120" x="687" y="553.97"/><polygon fill="#F1F1F1" points="790,558.97,790,572.97,802,572.97,802,564.97,796,558.97,790,558.97" style="stroke:#181818;stroke-width:0.5;"/><line style="stroke:#181818;stroke-width:0.5;" x1="796" x2="796" y1="558.97" y2="564.97"/><line style="stroke:#181818;stroke-width:0.5;" x1="802" x2="796" y1="564.97" y2="564.97"/><text fill="#000000" font-family="sans-serif" font-size="14" lengthAdjust="spacing" textLength="90" x="697" y="579.9651">/var/lib/mysql</text></g><!--entity 95d7ce929f2c8aa0858a310f134d2daa--><g id="elem_95d7ce929f2c8aa0858a310f134d2daa"><ellipse cx="476" cy="463.97" fill="#F1F1F1" rx="8" ry="8" style="stroke:#181818;stroke-width:0.5;"/><text fill="#000000" font-family="sans-serif" font-size="14" lengthAdjust="spacing" textLength="45" x="453.5" y="493.9651">10086</text></g><!--entity 5a7a23833fd97e0c7b70faf3fbd72be5--><g id="elem_5a7a23833fd97e0c7b70faf3fbd72be5"><ellipse cx="1018" cy="463.97" fill="#F1F1F1" rx="8" ry="8" style="stroke:#181818;stroke-width:0.5;"/><text fill="#000000" font-family="sans-serif" font-size="14" lengthAdjust="spacing" textLength="45" x="995.5" y="493.9651">63306</text></g><!--entity 6ba19c8495d2419588618541947d06c0--><g id="elem_6ba19c8495d2419588618541947d06c0"><rect fill="#F1F1F1" height="39.2969" rx="2.5" ry="2.5" style="stroke:#181818;stroke-width:0.5;" width="184" x="18" y="672.26"/><polygon fill="#F1F1F1" points="185,677.26,185,691.26,197,691.26,197,683.26,191,677.26,185,677.26" style="stroke:#181818;stroke-width:0.5;"/><line style="stroke:#181818;stroke-width:0.5;" x1="191" x2="191" y1="677.26" y2="683.26"/><line style="stroke:#181818;stroke-width:0.5;" x1="197" x2="191" y1="683.26" y2="683.26"/><text fill="#000000" font-family="sans-serif" font-size="14" lengthAdjust="spacing" textLength="154" x="28" y="698.2551">/path/to/you/dir/config</text></g><!--entity 08d9068f817b2213f151a8fa5504a348--><g id="elem_08d9068f817b2213f151a8fa5504a348"><rect fill="#F1F1F1" height="39.2969" rx="2.5" ry="2.5" style="stroke:#181818;stroke-width:0.5;" width="184" x="237" y="672.26"/><polygon fill="#F1F1F1" points="404,677.26,404,691.26,416,691.26,416,683.26,410,677.26,404,677.26" style="stroke:#181818;stroke-width:0.5;"/><line style="stroke:#181818;stroke-width:0.5;" x1="410" x2="410" y1="677.26" y2="683.26"/><line style="stroke:#181818;stroke-width:0.5;" x1="416" x2="410" y1="683.26" y2="683.26"/><text fill="#000000" font-family="sans-serif" font-size="14" lengthAdjust="spacing" textLength="154" x="247" y="698.2551">/path/to/you/dir/media</text></g><!--entity fca8da0c5da62790c0ef1cfbac65c7bf--><g id="elem_fca8da0c5da62790c0ef1cfbac65c7bf"><rect fill="#F1F1F1" height="39.2969" rx="2.5" ry="2.5" style="stroke:#181818;stroke-width:0.5;" width="137" x="678.5" y="672.26"/><polygon fill="#F1F1F1" points="798.5,677.26,798.5,691.26,810.5,691.26,810.5,683.26,804.5,677.26,798.5,677.26" style="stroke:#181818;stroke-width:0.5;"/><line style="stroke:#181818;stroke-width:0.5;" x1="804.5" x2="804.5" y1="677.26" y2="683.26"/><line style="stroke:#181818;stroke-width:0.5;" x1="810.5" x2="804.5" y1="683.26" y2="683.26"/><text fill="#000000" font-family="sans-serif" font-size="14" lengthAdjust="spacing" textLength="107" x="688.5" y="698.2551">/path/to/you/dir</text></g><!--link 9a9e788ff02c4144ef7cb2dda952e3b8 to c494c50a1f54ad1a16de9cf767fad1fb--><g id="link_9a9e788ff02c4144ef7cb2dda952e3b8_c494c50a1f54ad1a16de9cf767fad1fb"><path codeLine="36" d="M269.96,206.71 C301.4,249.06 339.6,300.49 354.06,319.97 " fill="none" id="9a9e788ff02c4144ef7cb2dda952e3b8-c494c50a1f54ad1a16de9cf767fad1fb" style="stroke:#181818;stroke-width:1.0;"/></g><!--link c494c50a1f54ad1a16de9cf767fad1fb to 95d7ce929f2c8aa0858a310f134d2daa--><g id="link_c494c50a1f54ad1a16de9cf767fad1fb_95d7ce929f2c8aa0858a310f134d2daa"><path codeLine="37" d="M366.91,337.89 C387.59,361.6 448.83,431.82 469.27,455.25 " fill="none" id="c494c50a1f54ad1a16de9cf767fad1fb-95d7ce929f2c8aa0858a310f134d2daa" style="stroke:#181818;stroke-width:1.0;"/></g><!--link 14beb31cf4ff090d69aea984e1bd0520 to 6ba19c8495d2419588618541947d06c0--><g id="link_14beb31cf4ff090d69aea984e1bd0520_6ba19c8495d2419588618541947d06c0"><path codeLine="38" d="M117.53,593.56 C115.86,615.18 113.14,650.35 111.47,671.98 " fill="none" id="14beb31cf4ff090d69aea984e1bd0520-6ba19c8495d2419588618541947d06c0" style="stroke:#181818;stroke-width:1.0;"/><text fill="#000000" font-family="sans-serif" font-size="13" lengthAdjust="spacing" textLength="14" x="116" y="638.3269">rw</text></g><!--link 9a9e788ff02c4144ef7cb2dda952e3b8 to 14beb31cf4ff090d69aea984e1bd0520--><g id="link_9a9e788ff02c4144ef7cb2dda952e3b8_14beb31cf4ff090d69aea984e1bd0520"><path codeLine="39" d="M207.65,206.8 C183.58,306.12 139.6132,487.5788 125.0432,547.6988 " fill="none" id="9a9e788ff02c4144ef7cb2dda952e3b8-to-14beb31cf4ff090d69aea984e1bd0520" style="stroke:#181818;stroke-width:1.0;stroke-dasharray:7.0,7.0;"/><polygon fill="#181818" points="123.63,553.53,129.6372,545.7253,124.8077,548.6707,121.8623,543.8411,123.63,553.53" style="stroke:#181818;stroke-width:1.0;"/><text fill="#000000" font-family="sans-serif" font-size="13" lengthAdjust="spacing" textLength="23" x="164" y="401.0369">use</text></g><!--link 3906db9e419cbd32ad3c85bd6adc3a4b to 08d9068f817b2213f151a8fa5504a348--><g id="link_3906db9e419cbd32ad3c85bd6adc3a4b_08d9068f817b2213f151a8fa5504a348"><path codeLine="40" d="M321.47,593.56 C323.14,615.18 325.86,650.35 327.53,671.98 " fill="none" id="3906db9e419cbd32ad3c85bd6adc3a4b-08d9068f817b2213f151a8fa5504a348" style="stroke:#181818;stroke-width:1.0;"/><text fill="#000000" font-family="sans-serif" font-size="13" lengthAdjust="spacing" textLength="14" x="326" y="638.3269">rw</text></g><!--link 9a9e788ff02c4144ef7cb2dda952e3b8 to 3906db9e419cbd32ad3c85bd6adc3a4b--><g id="link_9a9e788ff02c4144ef7cb2dda952e3b8_3906db9e419cbd32ad3c85bd6adc3a4b"><path codeLine="41" d="M237.31,206.8 C259.76,306.12 300.7771,487.5577 314.3671,547.6777 " fill="none" id="9a9e788ff02c4144ef7cb2dda952e3b8-to-3906db9e419cbd32ad3c85bd6adc3a4b" style="stroke:#181818;stroke-width:1.0;stroke-dasharray:7.0,7.0;"/><polygon fill="#181818" points="315.69,553.53,317.6072,543.8695,314.5876,548.653,309.8041,545.6334,315.69,553.53" style="stroke:#181818;stroke-width:1.0;"/><text fill="#000000" font-family="sans-serif" font-size="13" lengthAdjust="spacing" textLength="23" x="283" y="401.0369">use</text></g><!--link 0774aaaf4ef7b1873292e895fd8899ac to 56d413f1a16ecf6273b747ab3ec85f55--><g id="link_0774aaaf4ef7b1873292e895fd8899ac_56d413f1a16ecf6273b747ab3ec85f55"><path codeLine="42" d="M810.32,239.24 C832.6,272.93 854.47,305.99 864.01,320.42 " fill="none" id="0774aaaf4ef7b1873292e895fd8899ac-56d413f1a16ecf6273b747ab3ec85f55" style="stroke:#181818;stroke-width:1.0;"/></g><!--link 56d413f1a16ecf6273b747ab3ec85f55 to 5a7a23833fd97e0c7b70faf3fbd72be5--><g id="link_56d413f1a16ecf6273b747ab3ec85f55_5a7a23833fd97e0c7b70faf3fbd72be5"><path codeLine="43" d="M877.87,337.89 C904.44,361.6 983.1,431.82 1009.36,455.25 " fill="none" id="56d413f1a16ecf6273b747ab3ec85f55-5a7a23833fd97e0c7b70faf3fbd72be5" style="stroke:#181818;stroke-width:1.0;"/></g><!--link 98399632ea7e7ee0ad6ee6e4295513da to fca8da0c5da62790c0ef1cfbac65c7bf--><g id="link_98399632ea7e7ee0ad6ee6e4295513da_fca8da0c5da62790c0ef1cfbac65c7bf"><path codeLine="44" d="M747,593.56 C747,615.18 747,650.35 747,671.98 " fill="none" id="98399632ea7e7ee0ad6ee6e4295513da-fca8da0c5da62790c0ef1cfbac65c7bf" style="stroke:#181818;stroke-width:1.0;"/><text fill="#000000" font-family="sans-serif" font-size="13" lengthAdjust="spacing" textLength="14" x="748" y="638.3269">rw</text></g><!--link 0774aaaf4ef7b1873292e895fd8899ac to 98399632ea7e7ee0ad6ee6e4295513da--><g id="link_0774aaaf4ef7b1873292e895fd8899ac_98399632ea7e7ee0ad6ee6e4295513da"><path codeLine="45" d="M747,239.25 C747,342.51 747,493.36 747,547.47 " fill="none" id="0774aaaf4ef7b1873292e895fd8899ac-to-98399632ea7e7ee0ad6ee6e4295513da" style="stroke:#181818;stroke-width:1.0;stroke-dasharray:7.0,7.0;"/><polygon fill="#181818" points="747,553.47,751,544.47,747,548.47,743,544.47,747,553.47" style="stroke:#181818;stroke-width:1.0;"/><text fill="#000000" font-family="sans-serif" font-size="13" lengthAdjust="spacing" textLength="23" x="748" y="401.0369">use</text></g><!--SRC=[bLJRQYD747sVhvZeQMFmJDyl0YzeyRw462UMGqZ2ibHtLSiJf1b7abThGluzFIDVmMopRpDqrQcgSquLhDV3OTDzxVfLrGz8zUnYYqESrR2hEGyacEVSQ4SkK9JSWYRdXOk90TR_LdKSDhT3J_s-zk39EfSI4r5nfIZP60GYU2r81bV_LPsSR4Rmqytzxf_roKbLTHjOqRp-U-ZxU-WLK-qne5zr_TSvQqnZJW_T_kQOKMrfjuVjVbx3-W3tkuhwBzrsw3Uv_Bo-_lDiiUkWNTv0lxg1hge-LUz-h6USCMUcUQBoAce6F6a5o84R91-JDJRbtnIgZDqbYFjwriBjRNknFHzY6uS-TQiZ8IfGa3mcbQVq38q70kyKyO1C2_Osm8QmWobVUcOmU5BSnu1I0CheT40362MeKFttgC4uxfJYU9I1EOQ0MbeaIvmHyyxcy9I9VQq1irO1G1h93znPARp8Ukc4pdaFyQZ12Fv0wyZs2o6cfxbkx7TI_Uhrue_bhpz_lhgylFxyosAv_FtowlpifoU5VtWh-7nnlVYmM7uycnfwA-AtvSUhisUVl1NoLEnmE3GJK9Fk-aSRICcEBj065PTfb9zYCiBAO9M582bhaRH-AU8NsBRhBhIR9psyazuRAGXireBo5XWYGqfuhRb4o1A-DftNQ2DvuPE83e0vxK1obhXKA11W2ZVFtO458PsK2Rqb5csmB46IAQ0LWLvrTmlxctO_jFV3NOlTzgLJJO3iCQToTP7TffqptEdyfImo4zctO9xzoXncnxhak0r2ZAHf3Yw1rao1LEuRA5D-Yk0GMDG8cMVF8gEKjoT0D3fFbghYpJZ5q_BQbW8cbA8EfUMUK4gyrlDwjZtCoeCr3JRD- -956V7kTZIhIgTZwgwar_TsLopws5tnxepT5HUl5714AIr8QKCdb98p7vag3lR0LB7e0rF_0m00]--></g></svg>