<?xml version="1.0" standalone="no"?><!DOCTYPE svg PUBLIC "-//W3C//DTD SVG 1.1//EN" "http://www.w3.org/Graphics/SVG/1.1/DTD/svg11.dtd"><svg t="1597540562340" class="icon" viewBox="0 0 1024 1024" version="1.1" xmlns="http://www.w3.org/2000/svg" p-id="4295" width="32" height="32" xmlns:xlink="http://www.w3.org/1999/xlink"><defs><style type="text/css"></style></defs><path d="M526.628571 512L190.171429 285.257143l343.771428-219.428572 336.457143 219.428572z" fill="#F4B1B2" p-id="4296"></path><path d="M526.628571 541.257143c-7.314286 0-7.314286 0-14.628571-7.314286L175.542857 307.2c-7.314286 0-7.314286-14.628571-7.314286-21.942857 0-7.314286 7.314286-14.628571 14.628572-21.942857L519.314286 36.571429c7.314286-7.314286 21.942857-7.314286 29.257143 0l343.771428 219.428571c7.314286 7.314286 14.628571 14.628571 14.628572 21.942857 0 7.314286-7.314286 14.628571-14.628572 21.942857L541.257143 533.942857s-7.314286 7.314286-14.628572 7.314286zM241.371429 285.257143l285.257142 190.171428 292.571429-190.171428-292.571429-190.171429-285.257142 190.171429z" fill="#D72822" p-id="4297"></path><path d="M526.628571 716.8L124.342857 446.171429c-14.628571-7.314286-21.942857-29.257143-7.314286-36.571429 7.314286-14.628571 21.942857-14.628571 36.571429-7.314286L533.942857 658.285714l394.971429-256c14.628571-7.314286 29.257143-7.314286 36.571428 7.314286s7.314286 29.257143-7.314285 36.571429L526.628571 716.8z" fill="#D72822" p-id="4298"></path><path d="M526.628571 877.714286L124.342857 607.085714c-14.628571-7.314286-21.942857-21.942857-7.314286-36.571428 7.314286-14.628571 21.942857-14.628571 36.571429-7.314286l380.342857 256 394.971429-256c14.628571-7.314286 29.257143-7.314286 36.571428 7.314286 7.314286 14.628571 7.314286 29.257143-7.314285 36.571428L526.628571 877.714286z" fill="#D72822" p-id="4299"></path></svg>