<?xml version="1.0" standalone="no"?><!DOCTYPE svg PUBLIC "-//W3C//DTD SVG 1.1//EN" "http://www.w3.org/Graphics/SVG/1.1/DTD/svg11.dtd"><svg t="1597540219775" class="icon" viewBox="0 0 1024 1024" version="1.1" xmlns="http://www.w3.org/2000/svg" p-id="3907" width="32" height="32" xmlns:xlink="http://www.w3.org/1999/xlink"><defs><style type="text/css"></style></defs><path d="M96 1024V0h448v384h384v640H96z m96-256a32 32 0 0 0 32 32h96a32 32 0 0 0 32-32v-96a32 32 0 0 0-32-32H224a32 32 0 0 0-32 32v96z m160-416a32 32 0 0 0-32-32H224a32 32 0 0 0-32 32v96a32 32 0 0 0 32 32h96a32 32 0 0 0 32-32v-96z m128 160a32 32 0 0 0-32-32H352a32 32 0 0 0-32 32v96a32 32 0 0 0 32 32h96a32 32 0 0 0 32-32v-96z m0 320a32 32 0 0 0-32-32H352a32 32 0 0 0-32 32v96a32 32 0 0 0 32 32h96a32 32 0 0 0 32-32v-96z" fill="#3CC451" p-id="3908"></path><path d="M608 0l320 320H608V0z" fill="#B0E7B8" p-id="3909"></path></svg>