<?xml version="1.0" standalone="no"?><!DOCTYPE svg PUBLIC "-//W3C//DTD SVG 1.1//EN" "http://www.w3.org/Graphics/SVG/1.1/DTD/svg11.dtd"><svg t="1606398104775" class="icon" viewBox="0 0 1024 1024" version="1.1" xmlns="http://www.w3.org/2000/svg" p-id="3014" width="64" height="64" xmlns:xlink="http://www.w3.org/1999/xlink"><defs><style type="text/css"></style></defs><path d="M960 960a64 64 0 0 1-64 64H128a64 64 0 0 1-64-64V64a64 64 0 0 1 64-64h768a64 64 0 0 1 64 64v896z" fill="#EDD87E" p-id="3015"></path><path d="M576 224l-64 64h64zM448 288h64v64h-64zM512 352h64v64h-64zM448 416h64v64h-64z" fill="" p-id="3016"></path><path d="M608 480h-192a32 32 0 0 0-32 32v352a32 32 0 0 0 32 32h192a32 32 0 0 0 32-32V512a32 32 0 0 0-32-32z m-32 352h-128v-128h128v128z" fill="#FFFFFF" p-id="3017"></path><path d="M448 704h128v32h-128zM608 896h-192a32 32 0 0 1-32-32v32a32 32 0 0 0 32 32h192a32 32 0 0 0 32-32v-32a32 32 0 0 1-32 32z" fill="" p-id="3018"></path><path d="M800 0l-288 288-288-288z" fill="#434854" p-id="3019"></path></svg>