<?xml version="1.0" standalone="no"?><!DOCTYPE svg PUBLIC "-//W3C//DTD SVG 1.1//EN" "http://www.w3.org/Graphics/SVG/1.1/DTD/svg11.dtd"><svg t="1632207650207" class="icon" viewBox="0 0 1024 1024" version="1.1" xmlns="http://www.w3.org/2000/svg" p-id="3385" xmlns:xlink="http://www.w3.org/1999/xlink" width="64" height="64"><defs><style type="text/css"></style></defs><path d="M1004.284179 311.581294v491.723781c0 50.435821-37.801393 88.288159-81.970945 88.288159h-81.970945v-44.118607h81.970945a43.099701 43.099701 0 0 0 44.118607-44.118607V343.116418H802.38806c-44.118607 0-81.970945-37.801393-81.970946-88.237214V59.402189h-371.900497a43.099701 43.099701 0 0 0-44.118607 44.118607h-37.750448C266.647562 53.084975 298.029851 15.283582 348.618507 15.283582h397.373135l252.179104 290.031443m-239.442786-208.060498v163.890946a43.099701 43.099701 0 0 0 43.6601 44.118607h138.72398z m37.801393 346.733533v491.774726c0 50.435821-37.801393 88.237214-81.970945 88.237214H140.55801C96.388458 1024 58.587065 986.147662 58.587065 935.711841V235.927562C58.587065 185.491741 96.388458 147.741294 140.55801 147.741294h397.373134l252.179105 289.980497m-239.442786-208.060497v163.890945a43.099701 43.099701 0 0 0 44.118607 44.118607h138.72398z m-447.961791 6.266268v699.784279a43.099701 43.099701 0 0 0 44.118607 44.118607h573.745671a43.099701 43.099701 0 0 0 44.118607-44.118607V475.523184h-170.208159c-44.118607 0-81.970945-37.852338-81.970945-88.288159V191.808955h-371.900498c-25.472637 0-37.801393 18.900697-37.801393 44.118607z m100.871641 264.915423h201.743284v44.118607h-201.743284z m0-132.457711h201.743284V412.656716h-201.743284z m453.922388 302.614925h-453.922388V626.626866h453.922388z m0 132.457711h-453.922388V759.084577h453.922388z m0 0" p-id="3386"></path></svg>