<?xml version="1.0" encoding="UTF-8"?>
<svg width="64px" height="64px" viewBox="0 0 64 64" version="1.1" xmlns="http://www.w3.org/2000/svg" xmlns:xlink="http://www.w3.org/1999/xlink">
    <!-- Generator: Sketch 56.3 (81716) - https://sketch.com -->
    <title>icon-gitbook</title>
    <desc>Created with Sketch.</desc>
    <defs>
        <path d="M43.2769832,10.1619526 C43.375583,10.1099979 43.5234828,10.0320659 43.7206825,9.9281565 C44.0452767,9.80537011 44.426134,9.48524846 44.426134,9.00725859 C44.426134,8.34070392 43.74665,8.07759023 43.7423221,8.07759023 C42.4785685,7.46365829 40.5310029,6.53837515 38.6353725,5.63940338 C34.5801082,3.71867346 29.9881814,1.53921508 27.9670412,0.469219411 C26.2228881,-0.456063726 24.8206409,0.324506882 24.5739492,0.482375095 L24.0892218,0.727947871 C15.0049105,5.27542945 2.85210154,11.3708966 2.15963379,11.8006489 C0.92184769,12.5636786 0.15147732,14.0853528 0.0519350811,15.9753861 C-0.103870162,18.9704969 1.40657511,22.0927794 3.56188098,23.2373239 L16.6841448,30.0958207 C16.9784436,32.1700336 18.7399084,33.7224044 20.8173117,33.7224044 C23.1024553,33.7224044 24.9634623,31.8586824 24.9980857,29.5520524 L39.4490221,21.6147895 C40.1804411,22.1936396 41.089305,22.5137613 42.0198086,22.5137613 C44.3265918,22.5137613 46.2005826,20.6149575 46.2005826,18.2776309 C46.2005826,16.3949153 44.9846819,14.7967263 43.3083589,14.2462533" id="path-1"></path>
        <filter x="-18.4%" y="-19.3%" width="136.8%" height="150.4%" filterUnits="objectBoundingBox" id="filter-2">
            <feOffset dx="0" dy="2" in="SourceAlpha" result="shadowOffsetOuter1"></feOffset>
            <feGaussianBlur stdDeviation="2.5" in="shadowOffsetOuter1" result="shadowBlurOuter1"></feGaussianBlur>
            <feColorMatrix values="0 0 0 0 0   0 0 0 0 0   0 0 0 0 0  0 0 0 0.08 0" type="matrix" in="shadowBlurOuter1" result="shadowMatrixOuter1"></feColorMatrix>
            <feOffset dx="0" dy="0" in="SourceAlpha" result="shadowOffsetOuter2"></feOffset>
            <feGaussianBlur stdDeviation="1" in="shadowOffsetOuter2" result="shadowBlurOuter2"></feGaussianBlur>
            <feColorMatrix values="0 0 0 0 0   0 0 0 0 0   0 0 0 0 0  0 0 0 0.08 0" type="matrix" in="shadowBlurOuter2" result="shadowMatrixOuter2"></feColorMatrix>
            <feMerge>
                <feMergeNode in="shadowMatrixOuter1"></feMergeNode>
                <feMergeNode in="shadowMatrixOuter2"></feMergeNode>
            </feMerge>
        </filter>
    </defs>
    <g id="icon-gitbook" stroke="none" stroke-width="1" fill="none" fill-rule="evenodd">
        <g id="编组-16备份">
            <rect id="矩形备份-7" stroke="#D9D9D9" stroke-width="1.77777778" fill="#FFFFFF" opacity="0" x="0.888888889" y="0.888888889" width="62.2222222" height="62.2222222" rx="3.55555556"></rect>
            <g id="Group-27" transform="translate(9.000000, 15.000000)">
                <g id="Path">
                    <use fill="black" fill-opacity="1" filter="url(#filter-2)" xlink:href="#path-1"></use>
                    <use fill="#FFFFFF" fill-rule="evenodd" xlink:href="#path-1"></use>
                </g>
                <polygon id="Path-24" fill="#FAFAFA" points="2.88888889 13.3726776 1.15555556 15.1169399 2.88888889 20.9311475 20.2222222 30.2338798 43.3333333 17.4448941 43.3333333 9.30273224"></polygon>
                <polygon id="Path-24" fill="#EDEDED" points="2.88888889 13.3726776 1.15555556 15.1169399 2.88888889 20.9311475 20.2222222 30.2338798 20.2222222 20.9322414"></polygon>
                <ellipse id="Oval" fill="#FFFFFF" cx="20.8" cy="29.652459" rx="2.31111111" ry="2.32568306"></ellipse>
                <ellipse id="Oval-Copy" fill="#FFFFFF" cx="42.7555556" cy="18.0240437" rx="2.31111111" ry="2.32568306"></ellipse>
                <g id="gitbook" fill="#3884FF" fill-rule="nonzero">
                    <path d="M20.8173117,28.1180828 C21.5617145,28.1180828 22.1676238,28.7320148 22.1676238,29.486274 C22.1676238,30.2405332 21.5617145,30.8544652 20.8173117,30.8544652 C20.0729089,30.8544652 19.4669996,30.2405332 19.4669996,29.486274 C19.4669996,28.7320148 20.0729089,28.1180828 20.8173117,28.1180828 M42.0241365,19.6458221 C41.2797337,19.6458221 40.6738244,19.0318901 40.6738244,18.2776309 C40.6738244,17.5233716 41.2797337,16.9094397 42.0241365,16.9094397 C42.7685393,16.9094397 43.3744486,17.5233716 43.3744486,18.2776309 C43.3744486,19.0318901 42.7685393,19.6458221 42.0241365,19.6458221 M42.0241365,14.0415005 C39.7173533,14.0415005 37.8433625,15.9403043 37.8433625,18.2776309 C37.8433625,18.7336946 37.9169372,19.1853731 38.0640866,19.6238959 L24.249355,27.0743985 C23.4660008,25.929854 22.1935913,25.2501436 20.8173117,25.2501436 C19.2246359,25.2501436 17.7704536,26.1754267 17.06933,27.6181668 L4.66117353,20.9877019 C3.34981273,20.2904506 2.36737412,18.1022217 2.47124428,16.1113282 C2.52317936,15.0720291 2.87806908,14.2651471 3.41905951,13.9537959 C3.76096546,13.7564607 4.17211819,13.7740016 4.60923845,14.0064187 L4.691469,14.050271 C7.9806908,15.8043622 18.7399084,21.5490111 19.1943404,21.759502 C19.895464,22.0883941 20.2806492,22.219951 21.4751561,21.6498713 L43.7206825,9.9281565 C44.0452767,9.80537011 44.426134,9.48524846 44.426134,9.00725859 C44.426134,8.34070392 43.74665,8.07759023 43.7423221,8.07759023 C42.4785685,7.46365829 40.5310029,6.53837515 38.6353725,5.63940338 C34.5801082,3.71867346 29.9881814,1.53921508 27.9670412,0.469219411 C26.2228881,-0.456063726 24.8206409,0.324506882 24.5739492,0.482375095 L24.0892218,0.727947871 C15.0049105,5.27542945 2.85210154,11.3708966 2.15963379,11.8006489 C0.92184769,12.5636786 0.15147732,14.0853528 0.0519350811,15.9753861 C-0.103870162,18.9704969 1.40657511,22.0927794 3.56188098,23.2373239 L16.6841448,30.0958207 C16.9784436,32.1700336 18.7399084,33.7224044 20.8173117,33.7224044 C23.1024553,33.7224044 24.9634623,31.8586824 24.9980857,29.5520524 L39.4490221,21.6147895 C40.1804411,22.1936396 41.089305,22.5137613 42.0198086,22.5137613 C44.3265918,22.5137613 46.2005826,20.6149575 46.2005826,18.2776309 C46.2005826,15.9403043 44.3265918,14.0415005 42.0241365,14.0415005" id="Shape"></path>
                </g>
            </g>
        </g>
    </g>
</svg>