<?xml version="1.0" standalone="no"?><!DOCTYPE svg PUBLIC "-//W3C//DTD SVG 1.1//EN" "http://www.w3.org/Graphics/SVG/1.1/DTD/svg11.dtd"><svg t="1717682664834" class="icon" viewBox="0 0 1024 1024" version="1.1" xmlns="http://www.w3.org/2000/svg" p-id="17017" xmlns:xlink="http://www.w3.org/1999/xlink" width="200" height="200"><path d="M120.2688 849.3568l131.9424-349.2352c6.4512-17.152 22.2208-28.3648 39.7312-28.3648h529.8688v-137.216c0-47.6672-36.6592-86.3232-81.92-86.3232H433.5616c-10.1888 0-20.1728-3.328-28.5184-9.472L320.9216 176.6912a48.14848 48.14848 0 0 0-28.5184-9.472H188.0064c-45.2608 0-81.92 38.656-81.92 86.3232V800.768c0 18.0224 5.2736 34.7136 14.1824 48.5888z" fill="#FACC31" p-id="17018"></path><path d="M963.0208 475.5456c-13.0048-18.688-33.2288-29.44-55.5008-29.44h-60.1088v-111.616c0-61.7472-48.2304-111.9232-107.52-111.9232H433.5616c-4.7616 0-9.3696-1.536-13.312-4.4544L336.0768 156.0576a73.18016 73.18016 0 0 0-43.7248-14.4384H188.0064c-59.2896 0-107.52 50.2272-107.52 111.9232V800.768c0 22.3744 6.3488 43.9296 18.2784 62.464 0 0.0512 0.0512 0.0512 0.0512 0.1024 20.0192 30.9248 53.3504 49.408 89.1392 49.408H739.84c55.808 0 109.9264-42.496 131.4816-103.0144l99.8912-267.52c8.3968-22.3232 5.3248-47.2064-8.192-66.6624zM188.0064 192.8192h104.3968c4.7616 0 9.3696 1.536 13.312 4.4544l84.1216 62.0032c12.8512 9.472 27.9552 14.4896 43.7248 14.4896h306.3296c31.0784 0 56.32 27.2384 56.32 60.7232v111.616H291.9424c-28.3648 0-53.3504 17.664-63.6416 44.9536l-96.6144 255.6416V253.5424c0-33.4848 25.2928-60.7232 56.32-60.7232z m735.3344 331.4688l-100.0448 267.8784c-14.336 40.192-49.408 69.3248-83.4048 69.3248H188.0064c-14.4896 0-28.3136-6.0416-38.656-16.64l126.8736-335.7696c1.024-2.7136 2.5088-5.0176 4.352-6.912a17.48992 17.48992 0 0 1 6.4-4.096c1.5872-0.5632 3.2768-0.8192 4.9664-0.8192H907.52c7.2192 0 11.52 4.6592 13.4656 7.424 3.9424 5.7344 4.8128 13.056 2.3552 19.6096z" fill="#191919" p-id="17019"></path></svg>