<?xml version="1.0" standalone="no"?><!DOCTYPE svg PUBLIC "-//W3C//DTD SVG 1.1//EN" "http://www.w3.org/Graphics/SVG/1.1/DTD/svg11.dtd"><svg t="1717682347013" class="icon" viewBox="0 0 1024 1024" version="1.1" xmlns="http://www.w3.org/2000/svg" p-id="5485" xmlns:xlink="http://www.w3.org/1999/xlink" width="200" height="200"><path d="M612.9 761c0.6 25.1 6 43.8 15.8 55.9 9.9 12.3 28.3 19.6 55.1 22V700.7c-36.2-6.1-62.4-17.1-78.2-33-16-15.8-23.9-36.9-23.9-62.9 0-27.5 8.4-49.6 25.4-66.1s42.5-26.2 76.8-28.9v-43.6h30.7v43.6c33.9 3.4 58.3 13.1 73.5 29.1 15.2 16 22.6 37.3 22.6 64h-37.2c-2.7-19.6-8.1-34.1-16.3-43.6s-22.3-15-42.5-16.5v124.8c11.3 3.1 20.7 5.5 27.6 7.6 7.1 1.9 12.9 3.9 17.6 5.8 4.4 1.8 8.1 3.7 11 5.5 3.1 1.9 6.6 4 10.5 6.5 13.7 9.2 23.9 20 30.2 32.3 6.3 12.4 9.5 28 9.5 46.5 0 30.5-8.7 54.3-26.2 71.1s-44.3 26.7-80.5 29.4V922h-30.7v-49.6c-39.6-3.1-67.9-13.9-84.9-32.6-17-18.7-25.4-44.9-24.9-78.9h38.8v0.1z m20.7-120.2c9.4 9.9 26.2 17 50.3 21.5V543c-22.1 1-38.5 6.8-48.8 17.5s-15.7 24.6-15.7 41.7c0.2 15.9 4.7 28.7 14.2 38.6z m134.5 90.8c-9.7-11.3-27.5-19.7-53.3-25.2v133c21.5-0.6 38.1-6.8 50.1-18.6 11.8-11.8 17.8-26.7 17.8-44.8 0-18.2-4.9-33.1-14.6-44.4z" fill="#FF960B" p-id="5486"></path><path d="M512.7 149.4c-173.4 0-313.9 70.3-313.9 156.9v425.9c0 74.4 140.5 134.5 313.9 134.5V822c-148.5 0-269-40.1-269-89.7v-65.1c47.7 33.9 129 58 224.2 63.8v-44.8c-127.2-7.1-224.2-44-224.2-88.4v-65.1c47.5 33.8 129 58 224.2 63.8v-44.8c-127.2-7.1-224.2-44-224.2-88.4v-76c55 45.6 154.8 76 269 76s214.2-30.5 269-76v60.8h44.8V306.5c0.1-86.8-140.5-157.1-313.8-157.1z m0 269c-148.5 0-269.1-50.3-269.1-112 0-61.9 120.4-112.2 269-112.2 148.5 0 269 50.3 269 112.2 0.1 61.8-120.3 112-268.9 112z" fill="#3B4552" p-id="5487"></path></svg>