<?xml version="1.0" standalone="no"?><!DOCTYPE svg PUBLIC "-//W3C//DTD SVG 1.1//EN" "http://www.w3.org/Graphics/SVG/1.1/DTD/svg11.dtd"><svg t="1626867984018" class="icon" viewBox="0 0 1024 1024" version="1.1" xmlns="http://www.w3.org/2000/svg" p-id="1326" xmlns:xlink="http://www.w3.org/1999/xlink" width="128" height="128"><defs><style type="text/css">@font-face { font-family: feedback-iconfont; src: url("//at.alicdn.com/t/font_1031158_1uhr8ri0pk5.eot?#iefix") format("embedded-opentype"), url("//at.alicdn.com/t/font_1031158_1uhr8ri0pk5.woff2") format("woff2"), url("//at.alicdn.com/t/font_1031158_1uhr8ri0pk5.woff") format("woff"), url("//at.alicdn.com/t/font_1031158_1uhr8ri0pk5.ttf") format("truetype"), url("//at.alicdn.com/t/font_1031158_1uhr8ri0pk5.svg#iconfont") format("svg"); }
</style></defs><path d="M860.87 958H159.15a51.4 51.4 0 0 1-51.35-51.35v-787.3A51.4 51.4 0 0 1 159.15 68H622.5a34.11 34.11 0 0 1 24 9.93l255.79 255.83a34.14 34.14 0 0 1 9.93 24v548.89A51.4 51.4 0 0 1 860.87 958zM622.26 102.14l-463.11 0.1A17.13 17.13 0 0 0 142 119.35v787.3a17.14 17.14 0 0 0 17.12 17.12h701.75A17.14 17.14 0 0 0 878 906.65V357.72z" fill="#474F59" p-id="1327"></path><path d="M663.68 350.77H895.1L629.45 85.12v231.42a34.33 34.33 0 0 0 34.23 34.23z" fill="#F49B58" p-id="1328"></path><path d="M895.1 367.89H663.68a51.41 51.41 0 0 1-51.35-51.35V85.12A17.12 17.12 0 0 1 641.55 73L907.2 338.67a17.12 17.12 0 0 1-12.1 29.22zM646.56 126.44v190.1a17.14 17.14 0 0 0 17.12 17.12h190.11z" fill="#474F59" p-id="1329"></path><path d="M297.79 645.76q-15.07 0-30.4-1a141.59 141.59 0 0 1-26.84-4V456.53c4-0.72 8.31-1.41 12.87-2s9.22-1.14 14-1.51 9.45-0.64 14.1-0.82 9.08-0.27 13.28-0.27a185.61 185.61 0 0 1 32 2.6 81.42 81.42 0 0 1 25.61 8.63A44.9 44.9 0 0 1 369.26 479q6 9.86 6 24.37 0 13.42-6.43 23a45.55 45.55 0 0 1-17.94 15.33q17.25 5.74 25.47 17t8.21 28.48q0 29.3-21.36 43.94t-65.42 14.64zM274.51 531h24.37q19.71 0 30.94-5.62t11.23-20.12q0-13.69-11.64-19.45t-30.26-5.75c-5.3 0-10 0.1-14.1 0.28s-7.63 0.46-10.54 0.82z m0 27.11v57.78q5.75 0.55 12.32 0.82t12.05 0.28a135 135 0 0 0 19.85-1.37 51.63 51.63 0 0 0 15.89-4.79 28.42 28.42 0 0 0 10.68-9.18q4-5.74 4-14.79 0-16.14-11.78-22.45t-32.59-6.3zM459.22 453.8q6 10.4 13.41 25.46t15.07 31.63q7.67 16.58 15.19 33.69t13.83 31.62q6.3-14.51 13.7-31.62t15.06-33.69q7.66-16.56 15.06-31.63T574 453.8h31.09q2.52 20.81 4.74 44.22t4 47.93q1.8 24.49 3.34 49.29t2.66 48.33h-34q-1.14-33.14-2.66-68.19t-4.61-67.91q-3 6.3-7.12 15.06c-2.73 5.85-5.66 12.18-8.76 19s-6.26 13.92-9.45 21.22S547 577.17 544 584s-5.8 13.24-8.35 19.18l-6.57 15.2H503.3q-2.73-6.32-6.57-15.34t-8.35-19.3q-4.51-10.29-9.31-21.23t-9.45-21.08q-4.65-10.14-8.76-19t-7.12-14.93q-3.08 32.85-4.61 67.91t-2.65 68.19h-34q1.13-23.55 2.65-48.74t3.35-50q1.82-24.76 4.05-48.05t4.73-43zM710.74 451.88q41.34 0 63.39 15.06t22 47.1q0 16.71-5.89 28.61a49.43 49.43 0 0 1-17.12 19.45q-11.22 7.53-27.38 11.09a173 173 0 0 1-37 3.56h-17.17v66.82h-34.51v-187a172.22 172.22 0 0 1 26.7-3.69q14.66-1 26.98-1z m2.46 29.85q-13.14 0-21.63 0.82v64.62h16.7q24.93 0 38.34-7t13.39-26.4q0-9.31-3.56-15.61a25.6 25.6 0 0 0-9.86-9.86 46.31 46.31 0 0 0-14.92-5.06 107 107 0 0 0-18.46-1.51z" fill="#F49B58" p-id="1330"></path></svg>