<?xml version="1.0" standalone="no"?><!DOCTYPE svg PUBLIC "-//W3C//DTD SVG 1.1//EN" "http://www.w3.org/Graphics/SVG/1.1/DTD/svg11.dtd"><svg t="1626867922123" class="icon" viewBox="0 0 1024 1024" version="1.1" xmlns="http://www.w3.org/2000/svg" p-id="858" xmlns:xlink="http://www.w3.org/1999/xlink" width="128" height="128"><defs><style type="text/css">@font-face { font-family: feedback-iconfont; src: url("//at.alicdn.com/t/font_1031158_1uhr8ri0pk5.eot?#iefix") format("embedded-opentype"), url("//at.alicdn.com/t/font_1031158_1uhr8ri0pk5.woff2") format("woff2"), url("//at.alicdn.com/t/font_1031158_1uhr8ri0pk5.woff") format("woff"), url("//at.alicdn.com/t/font_1031158_1uhr8ri0pk5.ttf") format("truetype"), url("//at.alicdn.com/t/font_1031158_1uhr8ri0pk5.svg#iconfont") format("svg"); }
</style></defs><path d="M863.86 958H162.14a51.4 51.4 0 0 1-51.35-51.35v-787.3A51.4 51.4 0 0 1 162.14 68h463.35a34.11 34.11 0 0 1 24 9.93l255.79 255.83a33.64 33.64 0 0 1 9.93 24v548.89A51.4 51.4 0 0 1 863.86 958zM625.25 102.14l-463.11 0.1A17.13 17.13 0 0 0 145 119.35v787.3a17.14 17.14 0 0 0 17.12 17.12h701.74A17.14 17.14 0 0 0 881 906.65V357.72z" fill="#474F59" p-id="859"></path><path d="M666.67 350.77h231.42L632.44 85.12v231.42a34.33 34.33 0 0 0 34.23 34.23z" fill="#F49B58" p-id="860"></path><path d="M898.09 367.89H666.67a51.41 51.41 0 0 1-51.35-51.35V85.12A17.12 17.12 0 0 1 644.54 73l265.65 265.67a17.12 17.12 0 0 1-12.1 29.22zM649.55 126.44v190.1a17.14 17.14 0 0 0 17.12 17.12h190.11z" fill="#474F59" p-id="861"></path><path d="M387.17 581.13a107 107 0 0 1-3 26 52.22 52.22 0 0 1-10.54 21.08q-7.55 9-20.27 14.24t-32.17 5.21q-18.07 0-31.36-5.07t-20.4-10.82l12.32-27.11a98.18 98.18 0 0 0 16.84 8.91 52 52 0 0 0 20.41 4.26q17.52 0 25.46-8.77t7.94-30.12V453.8h34.78zM482.2 451.88q41.34 0 63.39 15.06t22 47.1q0 16.71-5.89 28.61a49.43 49.43 0 0 1-17.12 19.45q-11.24 7.53-27.38 11.09a173.1 173.1 0 0 1-37 3.56H463v66.82h-34.5v-187a172 172 0 0 1 26.7-3.69q14.66-1 27-1z m2.46 29.85q-13.16 0-21.64 0.82v64.62h16.71q24.91 0 38.34-7t13.42-26.43q0-9.31-3.56-15.61a25.6 25.6 0 0 0-9.86-9.86 46.38 46.38 0 0 0-14.93-5.06 106.87 106.87 0 0 0-18.48-1.48zM685.11 479.81q-29.31 0-44.77 18.21t-15.48 50.53a100.63 100.63 0 0 0 3.7 28.07 62 62 0 0 0 11 21.77 50.09 50.09 0 0 0 18.08 14.1q10.81 5.07 25.33 5.06a149.36 149.36 0 0 0 15.61-0.69 62.94 62.94 0 0 0 10.4-1.77V546.9h34.51v91.19q-7.12 2.74-24.1 6a207.89 207.89 0 0 1-39.16 3.28 103.19 103.19 0 0 1-37.52-6.57 77.83 77.83 0 0 1-28.89-19.17 87.18 87.18 0 0 1-18.49-30.94q-6.57-18.35-6.57-42.17t7.24-42.15a91.43 91.43 0 0 1 19.86-31.08A83.49 83.49 0 0 1 645.4 456a99.09 99.09 0 0 1 36.15-6.58 138.74 138.74 0 0 1 23.45 1.77 161.29 161.29 0 0 1 17.67 4 72.87 72.87 0 0 1 12.18 4.66c3.2 1.64 5.43 2.83 6.71 3.56l-10.41 28.21a83.5 83.5 0 0 0-20.4-8.35 93.92 93.92 0 0 0-25.64-3.46z" fill="#F49B58" p-id="862"></path></svg>