<?xml version="1.0" standalone="no"?><!DOCTYPE svg PUBLIC "-//W3C//DTD SVG 1.1//EN" "http://www.w3.org/Graphics/SVG/1.1/DTD/svg11.dtd"><svg t="1626867956809" class="icon" viewBox="0 0 1024 1024" version="1.1" xmlns="http://www.w3.org/2000/svg" p-id="1014" xmlns:xlink="http://www.w3.org/1999/xlink" width="128" height="128"><defs><style type="text/css">@font-face { font-family: feedback-iconfont; src: url("//at.alicdn.com/t/font_1031158_1uhr8ri0pk5.eot?#iefix") format("embedded-opentype"), url("//at.alicdn.com/t/font_1031158_1uhr8ri0pk5.woff2") format("woff2"), url("//at.alicdn.com/t/font_1031158_1uhr8ri0pk5.woff") format("woff"), url("//at.alicdn.com/t/font_1031158_1uhr8ri0pk5.ttf") format("truetype"), url("//at.alicdn.com/t/font_1031158_1uhr8ri0pk5.svg#iconfont") format("svg"); }
</style></defs><path d="M863.85 958H162.12a51.4 51.4 0 0 1-51.34-51.35V119.33A51.4 51.4 0 0 1 162.12 68h463.36a33.66 33.66 0 0 1 24 9.92l255.79 255.82a33.7 33.7 0 0 1 9.93 24v548.89A51.4 51.4 0 0 1 863.85 958zM625.24 102.11l-463.12 0.1A17.13 17.13 0 0 0 145 119.33v787.3a17.13 17.13 0 0 0 17.11 17.12h701.74A17.14 17.14 0 0 0 881 906.63V357.7z" fill="#474F59" p-id="1015"></path><path d="M666.66 350.75h231.42L632.43 85.1v231.42a34.33 34.33 0 0 0 34.23 34.23z" fill="#EA7D63" p-id="1016"></path><path d="M898.08 367.87H666.66a51.41 51.41 0 0 1-51.35-51.35V85.1A17.12 17.12 0 0 1 644.53 73l265.66 265.65a17.12 17.12 0 0 1-12.11 29.22zM649.55 126.42v190.1a17.14 17.14 0 0 0 17.11 17.12h190.11z" fill="#474F59" p-id="1017"></path><path d="M425.77 479.78q-29.31 0-44.78 18.22t-15.47 50.53a100.14 100.14 0 0 0 3.7 28.06 61.84 61.84 0 0 0 10.95 21.78 50.2 50.2 0 0 0 18.08 14.1q10.8 5.07 25.33 5.06a152 152 0 0 0 15.6-0.69 61.7 61.7 0 0 0 10.41-1.78v-68.18h34.5v91.19q-7.11 2.74-24.09 6a208 208 0 0 1-39.16 3.28 103.19 103.19 0 0 1-37.52-6.57 77.75 77.75 0 0 1-28.89-19.17A87 87 0 0 1 336 590.7q-6.57-18.35-6.58-42.17t7.26-42.18a91 91 0 0 1 19.86-31.08A83.38 83.38 0 0 1 386.06 456a99.26 99.26 0 0 1 36.15-6.57 137.79 137.79 0 0 1 23.41 1.78 158.77 158.77 0 0 1 17.66 4 71.54 71.54 0 0 1 12.19 4.65q4.78 2.47 6.71 3.56l-10.41 28.21a84.06 84.06 0 0 0-20.4-8.35 94.36 94.36 0 0 0-25.6-3.5zM517.23 453.77h34.5v189.78h-34.5zM590.34 643.55V453.77h119.94v29.3h-85.43v48.47h75.85v29.3h-75.85v82.71z" fill="#EA7D63" p-id="1018"></path></svg>