<?xml version="1.0" standalone="no"?><!DOCTYPE svg PUBLIC "-//W3C//DTD SVG 1.1//EN" "http://www.w3.org/Graphics/SVG/1.1/DTD/svg11.dtd"><svg t="1626867969096" class="icon" viewBox="0 0 1024 1024" version="1.1" xmlns="http://www.w3.org/2000/svg" p-id="1170" xmlns:xlink="http://www.w3.org/1999/xlink" width="128" height="128"><defs><style type="text/css">@font-face { font-family: feedback-iconfont; src: url("//at.alicdn.com/t/font_1031158_1uhr8ri0pk5.eot?#iefix") format("embedded-opentype"), url("//at.alicdn.com/t/font_1031158_1uhr8ri0pk5.woff2") format("woff2"), url("//at.alicdn.com/t/font_1031158_1uhr8ri0pk5.woff") format("woff"), url("//at.alicdn.com/t/font_1031158_1uhr8ri0pk5.ttf") format("truetype"), url("//at.alicdn.com/t/font_1031158_1uhr8ri0pk5.svg#iconfont") format("svg"); }
</style></defs><path d="M859.87 958H158.15a51.41 51.41 0 0 1-51.35-51.35v-787.3A51.41 51.41 0 0 1 158.15 68H621.5a33.66 33.66 0 0 1 24 9.92l255.79 255.84a33.64 33.64 0 0 1 9.93 24v548.89A51.4 51.4 0 0 1 859.87 958z m-238.6-855.86l-463.12 0.1A17.13 17.13 0 0 0 141 119.35v787.3a17.14 17.14 0 0 0 17.12 17.12h701.75A17.14 17.14 0 0 0 877 906.65V357.72z" fill="#474F59" p-id="1171"></path><path d="M662.68 350.77h231.43L628.45 85.12v231.42a34.33 34.33 0 0 0 34.23 34.23z" fill="#F49B58" p-id="1172"></path><path d="M894.1 367.89H662.69a51.41 51.41 0 0 1-51.35-51.35V85.12A17.12 17.12 0 0 1 640.56 73L906.2 338.67a17.12 17.12 0 0 1-12.1 29.22zM645.57 126.44v190.1a17.14 17.14 0 0 0 17.12 17.12h190.09z" fill="#474F59" p-id="1173"></path><path d="M306.24 451.88q41.34 0 63.39 15.06T391.68 514q0 16.71-5.89 28.61a49.43 49.43 0 0 1-17.12 19.45q-11.22 7.53-27.38 11.09a173.1 173.1 0 0 1-37 3.56h-17.22v66.82h-34.51v-187a172.22 172.22 0 0 1 26.7-3.69q14.65-0.96 26.98-0.96z m2.46 29.85q-13.14 0-21.63 0.82v64.62h16.7q24.92 0 38.34-7t13.42-26.43q0-9.31-3.56-15.61a25.6 25.6 0 0 0-9.86-9.86 46.38 46.38 0 0 0-14.93-5.06 106.87 106.87 0 0 0-18.48-1.48zM548.31 643.57Q539 628 527.5 610t-23.83-36.15q-12.32-18.21-25.05-35.33t-24.24-30.81v135.86h-34V453.8h28.21q11 11.49 23.55 27.24t25.33 32.73q12.74 17 24.65 34.09t21.22 31.9v-126h34.23v189.81zM709.05 479.81q-29.29 0-44.77 18.21t-15.47 50.53a100.26 100.26 0 0 0 3.7 28.07 61.79 61.79 0 0 0 11 21.77 50.05 50.05 0 0 0 18.07 14.1q10.82 5.07 25.33 5.06a149.23 149.23 0 0 0 15.61-0.69 63.09 63.09 0 0 0 10.41-1.77V546.9h34.5v91.19q-7.11 2.74-24.1 6a207.78 207.78 0 0 1-39.15 3.28 103.15 103.15 0 0 1-37.52-6.57 77.75 77.75 0 0 1-28.89-19.17 87.18 87.18 0 0 1-18.49-30.94q-6.57-18.35-6.57-42.17t7.26-42.18a91.25 91.25 0 0 1 19.85-31.08A83.53 83.53 0 0 1 669.35 456a99 99 0 0 1 36.14-6.58 138.86 138.86 0 0 1 23.42 1.78 162.36 162.36 0 0 1 17.67 4 72.87 72.87 0 0 1 12.18 4.66c3.19 1.64 5.42 2.83 6.71 3.56l-10.41 28.21a83.66 83.66 0 0 0-20.4-8.35 94 94 0 0 0-25.61-3.47z" fill="#F49B58" p-id="1174"></path></svg>