<?xml version="1.0" standalone="no"?><!DOCTYPE svg PUBLIC "-//W3C//DTD SVG 1.1//EN" "http://www.w3.org/Graphics/SVG/1.1/DTD/svg11.dtd"><svg t="1597549724434" class="icon" viewBox="0 0 1024 1024" version="1.1" xmlns="http://www.w3.org/2000/svg" p-id="28428" xmlns:xlink="http://www.w3.org/1999/xlink" width="32" height="32"><defs><style type="text/css"></style></defs><path d="M146.863158 0h538.947368l296.421053 296.421053v619.789473c0 59.284211-48.505263 107.789474-107.789474 107.789474H146.863158c-59.284211 0-107.789474-48.505263-107.789474-107.789474V107.789474c0-59.284211 48.505263-107.789474 107.789474-107.789474z" fill="#2F77F1" p-id="28429"></path><path d="M688.505263 0l296.421053 296.421053h-296.421053V0zM549.726316 661.557895H142.821053c-14.821053 0-25.6-12.126316-25.6-25.6V633.263158c0-14.821053 12.126316-25.6 25.6-25.6h406.905263c13.473684 0 25.6 12.126316 25.6 25.6v2.694737c0 13.473684-10.778947 25.6-25.6 25.6z m-134.736842-350.31579H142.821053c-14.821053 0-25.6-10.778947-25.6-25.6V282.947368c0-14.821053 12.126316-25.6 25.6-25.6h272.168421c13.473684 0 25.6 12.126316 25.6 25.6v2.694737c0 13.473684-10.778947 25.6-25.6 25.6z m-272.168421 121.263158h245.221052c13.473684 0 25.6 12.126316 25.6 25.6v2.694737c0 13.473684-12.126316 25.6-25.6 25.6H142.821053c-14.821053 0-25.6-10.778947-25.6-25.6V458.105263c0-14.821053 12.126316-25.6 25.6-25.6z" fill="#AFFCFE" p-id="28430"></path></svg>