<?xml version="1.0" standalone="no"?><!DOCTYPE svg PUBLIC "-//W3C//DTD SVG 1.1//EN" "http://www.w3.org/Graphics/SVG/1.1/DTD/svg11.dtd"><svg t="1597844024224" class="icon" viewBox="0 0 1024 1024" version="1.1" xmlns="http://www.w3.org/2000/svg" p-id="2182" xmlns:xlink="http://www.w3.org/1999/xlink" width="32" height="32"><defs><style type="text/css"></style></defs><path d="M814.833713 1024a35.323663 35.323663 0 0 1-17.275076-4.512147L549.519482 880.513732a66.006262 66.006262 0 0 0-65.36167 0L254.296163 1009.432212a64.45924 64.45924 0 0 1-65.361669 0A64.45924 64.45924 0 0 1 156.318119 952.321325v-816.053976A136.395752 136.395752 0 0 1 292.584952 0.000516h438.322831a136.395752 136.395752 0 0 1 136.782507 136.266833v650.780485a35.323663 35.323663 0 0 1-70.647327 0V136.267349a65.748425 65.748425 0 0 0-65.619506-65.619506h-438.322831a65.748425 65.748425 0 0 0-65.619507 65.619506V943.683787l221.868704-125.437681a136.653588 136.653588 0 0 1 135.364404 0.644593L832.108789 957.86482a35.323663 35.323663 0 0 1-17.275076 66.13518z" fill="#0060F7" p-id="2183"></path><path d="M666.190706 293.676812H353.176637a35.323663 35.323663 0 1 1 0-70.647326h313.014069a35.323663 35.323663 0 1 1 0 70.647326zM551.711096 473.904847h-198.534459a35.323663 35.323663 0 0 1 0-70.647327h198.534459a35.323663 35.323663 0 0 1 0 70.647327z" fill="#FF4B9D" p-id="2184"></path></svg>