<?xml version="1.0" standalone="no"?><!DOCTYPE svg PUBLIC "-//W3C//DTD SVG 1.1//EN" "http://www.w3.org/Graphics/SVG/1.1/DTD/svg11.dtd"><svg t="1597585176477" class="icon" viewBox="0 0 1024 1024" version="1.1" xmlns="http://www.w3.org/2000/svg" p-id="7065" xmlns:xlink="http://www.w3.org/1999/xlink" width="32" height="32"><defs><style type="text/css"></style></defs><path d="M789.333333 785.066667H234.666667c-23.466667 0-42.666667-19.2-42.666667-42.666667v-597.333333c0-23.466667 19.2-42.666667 42.666667-42.666667h554.666666c23.466667 0 42.666667 19.2 42.666667 42.666667v597.333333c0 23.466667-19.2 42.666667-42.666667 42.666667z" fill="#FFC53D" p-id="7066"></path><path d="M654.933333 657.066667c-19.2 61.866667-74.666667 106.666667-142.933333 106.666666s-123.733333-44.8-142.933333-106.666666H128c-12.8 0-21.333333 8.533333-21.333333 21.333333v213.333333c0 12.8 8.533333 21.333333 21.333333 21.333334h768c12.8 0 21.333333-8.533333 21.333333-21.333334v-213.333333c0-12.8-8.533333-21.333333-21.333333-21.333333H654.933333z" fill="#1890FF" p-id="7067"></path><path d="M706.133333 273.066667H317.866667c-10.666667 0-19.2-8.533333-19.2-19.2v-6.4c0-10.666667 8.533333-19.2 19.2-19.2h390.4c10.666667 0 19.2 8.533333 19.2 19.2v6.4c-2.133333 10.666667-10.666667 19.2-21.333334 19.2zM706.133333 443.733333H317.866667c-10.666667 0-19.2-8.533333-19.2-19.2v-6.4c0-10.666667 8.533333-19.2 19.2-19.2h390.4c10.666667 0 19.2 8.533333 19.2 19.2v6.4c-2.133333 10.666667-10.666667 19.2-21.333334 19.2zM533.333333 593.066667H320c-12.8 0-21.333333-8.533333-21.333333-21.333334s8.533333-21.333333 21.333333-21.333333h213.333333c12.8 0 21.333333 8.533333 21.333334 21.333333 0 10.666667-8.533333 21.333333-21.333334 21.333334z" fill="#FFFFFF" p-id="7068"></path></svg>