<?xml version="1.0" standalone="no"?><!DOCTYPE svg PUBLIC "-//W3C//DTD SVG 1.1//EN" "http://www.w3.org/Graphics/SVG/1.1/DTD/svg11.dtd"><svg t="1597547489850" class="icon" viewBox="0 0 1024 1024" version="1.1" xmlns="http://www.w3.org/2000/svg" p-id="13137" xmlns:xlink="http://www.w3.org/1999/xlink" width="32" height="32"><defs><style type="text/css"></style></defs><path d="M239.2 244.8c-8 0-17.6-1.6-25.6-3.2-25.6-4.8-48-19.2-64-36.8v657.6c0 48 11.2 83.2 35.2 105.6 27.2 27.2 64 24 64 24h624V244.8H239.2z" fill="#FFFFFF" p-id="13138"></path><path d="M149.6 123.2c0 49.6 40 89.6 89.6 89.6h590.4c-6.4-11.2-12.8-25.6-17.6-43.2H492v-32h315.2c0-11.2 0-20.8 1.6-32H372v-32h444.8c3.2-12.8 9.6-27.2 16-41.6H239.2c-49.6 0-89.6 40-89.6 91.2z" fill="#FFFFFF" p-id="13139"></path><path d="M906.4 32V0H239.2C172 0 117.6 54.4 117.6 121.6v740.8c0 57.6 16 100.8 46.4 129.6 32 30.4 70.4 32 83.2 32H906.4V212.8h-36.8c-6.4-8-62.4-68.8 0-180.8h36.8z m-33.6 960h-624s-36.8 3.2-64-24c-24-22.4-35.2-57.6-35.2-105.6V204.8c16 17.6 38.4 32 64 36.8 8 1.6 17.6 3.2 25.6 3.2h633.6V992z m-56-918.4H372v32h436.8c-1.6 11.2-1.6 20.8-1.6 32H492v32h320c4.8 17.6 11.2 32 17.6 43.2H239.2c-49.6 0-89.6-40-89.6-89.6 0-51.2 40-91.2 89.6-91.2h593.6c-6.4 14.4-12.8 28.8-16 41.6z" fill="" p-id="13140"></path><path d="M808.8 928V244.8H239.2c-9.6 0-17.6-1.6-25.6-3.2V928h595.2z" fill="#9DE8F7" p-id="13141"></path></svg>