<?xml version="1.0" standalone="no"?><!DOCTYPE svg PUBLIC "-//W3C//DTD SVG 1.1//EN" "http://www.w3.org/Graphics/SVG/1.1/DTD/svg11.dtd"><svg t="1609668475194" class="icon" viewBox="0 0 1194 1024" version="1.1" xmlns="http://www.w3.org/2000/svg" p-id="6789" xmlns:xlink="http://www.w3.org/1999/xlink" width="23.3203125" height="20"><defs><style type="text/css"></style></defs><path d="M1187.2 329.941333c12.8-20.650667 8.533333-48.213333-8.533333-64.298666-19.2-16.042667-44.885333-11.477333-59.818667 9.216-2.133333 2.261333-239.274667 303.018667-521.301333 303.018666-273.493333 0-521.301333-303.018667-523.434667-305.322666-14.933333-18.346667-42.752-20.650667-59.818667-4.608-17.109333 16.085333-19.242667 45.909333-4.266666 64.298666 4.266667 6.869333 55.509333 68.864 136.704 137.728L37.76 591.616c-17.066667 18.346667-14.933333 48.213333 2.133333 64.298667 4.266667 9.173333 14.933333 13.781333 25.642667 13.781333 10.666667 0 21.376-4.608 29.909333-13.781333l117.504-130.858667c55.552 41.344 121.813333 80.341333 194.432 107.904l-44.842666 162.986667c-6.4 25.258667 6.4 50.517333 29.866666 57.386666h12.842667c19.2 0 36.309333-13.781333 40.576-34.432l44.885333-162.986666c34.176 6.869333 70.485333 11.477333 106.837334 11.477333 36.309333 0 72.618667-4.608 106.794666-11.52l44.885334 160.725333c4.266667 20.650667 23.466667 34.432 40.576 34.432 4.266667 0 8.533333 0 10.666666-2.304 23.552-6.869333 36.352-32.128 29.952-57.386666l-44.885333-160.682667c72.661333-27.562667 138.88-66.56 194.432-107.904l115.370667 128.554667c8.533333 9.216 19.2 13.781333 29.909333 13.781333 10.666667 0 21.333333-4.565333 29.909333-13.781333 17.066667-18.346667 17.066667-45.909333 2.133334-64.256l-108.970667-121.685334c87.594667-68.864 138.88-135.424 138.88-135.424z" p-id="6790" fill="#e6e6e6"></path></svg>