<?xml version="1.0" encoding="UTF-8" standalone="no"?>
<svg
   xmlns:dc="http://purl.org/dc/elements/1.1/"
   xmlns:cc="http://creativecommons.org/ns#"
   xmlns:rdf="http://www.w3.org/1999/02/22-rdf-syntax-ns#"
   xmlns:svg="http://www.w3.org/2000/svg"
   xmlns="http://www.w3.org/2000/svg"
   xmlns:sodipodi="http://sodipodi.sourceforge.net/DTD/sodipodi-0.dtd"
   xmlns:inkscape="http://www.inkscape.org/namespaces/inkscape"
   width="279"
   height="64"
   viewBox="0 0 73.818748 16.933334"
   version="1.1"
   id="svg8"
   inkscape:version="1.0.2 (e86c870879, 2021-01-15, custom)"
   sodipodi:docname="mrdoc-logo.svg">
  <defs
     id="defs2" />
  <sodipodi:namedview
     id="base"
     pagecolor="#ffffff"
     bordercolor="#666666"
     borderopacity="1.0"
     inkscape:pageopacity="0.0"
     inkscape:pageshadow="2"
     inkscape:zoom="1.4"
     inkscape:cx="12.798827"
     inkscape:cy="50.558903"
     inkscape:document-units="mm"
     inkscape:current-layer="layer1"
     inkscape:document-rotation="0"
     showgrid="true"
     units="px"
     inkscape:window-width="1920"
     inkscape:window-height="986"
     inkscape:window-x="-11"
     inkscape:window-y="-11"
     inkscape:window-maximized="1">
    <inkscape:grid
       type="xygrid"
       id="grid10" />
  </sodipodi:namedview>
  <metadata
     id="metadata5">
    <rdf:RDF>
      <cc:Work
         rdf:about="">
        <dc:format>image/svg+xml</dc:format>
        <dc:type
           rdf:resource="http://purl.org/dc/dcmitype/StillImage" />
        <dc:title></dc:title>
      </cc:Work>
    </rdf:RDF>
  </metadata>
  <g
     inkscape:label="图层 1"
     inkscape:groupmode="layer"
     id="layer1">
    <g
       aria-label="觅道文档"
       transform="scale(1.0085087,0.9915631)"
       id="text29"
       style="font-style:normal;font-variant:normal;font-weight:normal;font-stretch:normal;font-size:19.2124px;line-height:1.25;font-family:xiaowei;-inkscape-font-specification:'xiaowei, Normal';font-variant-ligatures:normal;font-variant-caps:normal;font-variant-numeric:normal;font-variant-east-asian:normal;stroke-width:0.480309">
      <path
         d="M 0.8050768,0.73809482 Q 1.0302221,0.85066748 1.2178432,0.96324014 1.4429885,1.0758128 1.8557549,1.2259097 2.2685214,1.3384823 2.7563362,1.4135308 3.2441511,1.4885792 3.919587,1.5261034 4.6325472,1.5636277 6.0209433,1.451055 6.3586613,1.4135308 7.2592426,1.3384823 8.1973481,1.2634339 8.535066,1.2259097 10.073559,1.113337 11.086713,1.0382886 q 1.388396,-0.11257268 1.500969,-0.11257268 0.07505,0 0.07505,0.63791178 v 0.6003875 l -0.262669,0.037524 q -0.07505,0 -1.613542,0.1500969 Q 9.4356473,2.4266847 8.6101145,2.5017331 6.2460886,2.6893542 6.0209433,2.7268785 4.2197808,2.8769753 4.0321597,2.8394511 3.8070144,2.8019269 3.5818691,2.7644027 3.4317722,2.7268785 3.05653,2.6143058 2.7938604,2.5392574 2.4186182,2.3516363 2.1559487,2.2015394 1.8182307,1.9763941 1.518037,1.7512488 1.2178432,1.4885792 0.91764946,1.2259097 0.76755258,1.0382886 0.57993148,0.81314326 0.6174557,0.7005706 L 0.65497992,0.58799794 Z M 4.4824503,3.3647902 q 0,0 0.2251453,0.1500969 0.2251454,0.1500969 0.4502907,0.3752422 0.2251453,0.2626695 0.337718,0.4878148 0.1125726,0.2251453 0.1125726,0.6379118 0,0.4127664 -0.075048,0.4878148 Q 5.4956043,5.5787192 4.6700714,5.0158559 3.8070144,4.4529926 3.8070144,4.4529926 3.7694901,4.4154683 4.1072081,3.8901293 4.4449261,3.3647902 4.4824503,3.3647902 Z m 2.7392681,0.5253391 q 0.3377179,-0.4878149 0.3752421,-0.4878149 0.037524,-0.037524 0.2626696,0.1500969 0.2251453,0.1500969 0.4502906,0.3752422 0.2251453,0.2251453 0.3001938,0.4502906 0.1125726,0.2251453 0.1500969,0.4502907 0.037524,0.2251453 0,0.4127664 -0.037524,0.1876211 -0.1125727,0.2626695 -0.037524,0.075049 -0.9005813,-0.4878148 -0.863057,-0.5628633 -0.863057,-0.6003876 0,-0.037524 0.337718,-0.525339 z m 4.5029066,-0.337718 q 0.03752,0.037524 0.112572,0.1125727 0.07505,0.037524 0.187621,0.1125726 0.112573,0.075048 0.225146,0.1500969 0.337718,0.2626695 0.375242,0.3001937 0,0 -0.112573,0.1876211 -0.150097,0.1876211 -0.375242,0.4127665 -0.300194,0.2626695 -0.525339,0.3752422 -0.225145,0.1125726 -0.487815,0.1500968 -0.225145,0 -0.45029,-0.037524 Q 10.486325,5.2410012 10.448801,5.203477 10.373753,5.1659527 10.97414,4.3028957 L 11.612052,3.4773629 Z M 3.6944417,5.7663402 H 4.3323534 V 5.8789129 6.0290098 H 7.9346785 11.537004 V 5.9164371 5.7663402 h 0.637911 0.675436 l -0.03752,2.7767923 q 0,2.7392685 -0.112573,3.0019375 -0.07505,0.225145 -0.225145,0.412766 -0.150097,0.225146 -0.337718,0.337718 -0.225145,0.150097 -0.375242,0.187622 -0.150097,0.03752 -0.187621,0.03752 -0.03752,-0.03752 -0.03752,-2.8893651 V 6.7794942 H 7.9346785 4.3323534 v 2.1388805 q 0,2.1764043 -0.075048,2.4390743 -0.075048,0.225145 -0.1876211,0.450291 -0.075048,0.187621 -0.3001938,0.375242 -0.187621,0.187621 -0.3377179,0.262669 -0.075049,0.03753 -0.2251453,0.07505 H 3.0940542 V 9.14352 5.7663402 Z m 4.1651884,1.7261141 q 0.9005813,0 0.9005813,0.037524 0.037524,0.037524 -0.037524,0.6003875 Q 8.5725903,8.7307536 8.4600176,9.0684716 8.3474449,9.5187622 8.1222996,10.044101 7.9346785,10.56944 7.672009,11.094779 q -0.3001938,0.637912 -0.5253391,1.013154 -0.337718,0.525339 -0.6754359,0.97563 -0.337718,0.487815 -0.8255329,0.938106 -0.4502906,0.45029 -0.8255328,0.750484 -0.337718,0.262669 -0.7129602,0.525339 -0.3752422,0.225145 -0.9005812,0.487815 -0.5628633,0.262669 -0.9756298,0.412766 -0.3752422,0.112573 -0.7880086,0.225146 -0.3377179,0.112572 -0.4127664,0.07505 -0.0750484,-0.03752 -0.37524218,-0.03752 -0.30019375,-0.03752 -0.33771797,-0.07505 0,0 0.0375242,-0.03752 0.0375242,-0.03752 0.11257265,-0.07505 0.11257266,-0.03752 0.22514532,-0.07505 Q 1.0302221,16.047976 1.518037,15.822831 1.8932792,15.63521 2.381094,15.335016 2.7938604,15.072347 3.2066269,14.734629 3.6193933,14.434435 4.0696839,14.021669 4.5199745,13.571378 4.8201683,13.23366 5.1203621,12.858418 5.3830316,12.445651 5.7207496,11.920312 5.8708464,11.620119 6.0959918,11.244876 6.2460886,10.83211 6.3961855,10.419343 6.5462824,9.9690528 6.6963793,9.4437138 6.7714277,9.1059958 6.8464762,8.6932294 6.8840004,8.2429387 6.9215246,7.7551239 6.9590488,7.6425512 V 7.4924543 Z m 1.2382992,2.2889774 h 0.6379118 v 2.2889773 q 0,0.938106 0,1.651066 0.037524,0.71296 0.037524,0.788008 0.037524,0.187622 0.1500969,0.300194 0.1125728,0.07505 0.2626698,0.187621 0.150097,0.07505 2.439074,0.07505 2.288977,0 2.326502,0.07505 0,0.07505 -0.03753,0.187621 -0.03752,0.150097 -0.150097,0.300194 -0.112572,0.112573 -0.337717,0.187621 -0.225146,0.07505 -1.200776,0.07505 -1.013153,0.03752 -2.439074,0 Q 9.3981231,15.822831 9.1729778,15.747783 8.9478325,15.672734 8.7602114,15.485113 8.6101145,15.297492 8.535066,15.147395 8.4975418,14.959774 8.4975418,12.370603 L 8.4600176,9.7814317 Z"
         style="font-style:normal;font-variant:normal;font-weight:normal;font-stretch:normal;font-size:19.2124px;font-family:xiaowei;-inkscape-font-specification:'xiaowei, Normal';font-variant-ligatures:normal;font-variant-caps:normal;font-variant-numeric:normal;font-variant-east-asian:normal;stroke-width:0.480309"
         id="path31" />
      <path
         d="m 31.725034,1.0758128 q 0.675436,0 0.675436,0.075048 0,0.075049 -0.187621,0.4127665 -0.187621,0.3752421 -0.525339,0.7504843 -0.337718,0.337718 -0.637912,0.4878149 -0.26267,0.1500969 -0.450291,0.2251453 -0.187621,0.037524 -0.45029,0.075048 -0.187622,0.037524 -0.375243,0.037524 l -0.112572,-0.037524 0.300193,-0.3001938 q 0.300194,-0.3752422 0.450291,-0.6003875 0.150097,-0.2251453 0.412766,-0.675436 l 0.225146,-0.4502906 z m -5.215867,0.037524 q 0.187621,0.037524 0.562864,0.2251453 0.375242,0.1876211 0.675435,0.4127665 0.26267,0.2251453 0.52534,0.4502906 0.225145,0.2626695 0.45029,0.5628633 0.225146,0.3001937 0.225146,0.3752422 0,0.037524 -0.712961,0.037524 h -0.71296 L 27.372224,2.8019269 Q 27.184603,2.3891605 27.034506,2.0889667 26.846885,1.788773 26.62174,1.6011519 26.434119,1.4135308 26.35907,1.4135308 q -0.07505,0 -0.07505,-0.037524 0,-0.037524 0.03752,-0.1500969 0.03752,-0.1125727 0.187621,-0.1125727 z m -4.8031,1.5760172 h 1.500969 l -0.03752,0.3752422 v 0.337718 h -1.500969 l -1.463445,0.037524 V 3.0645964 2.6893542 Z m 7.654941,0.7880087 h 4.315285 V 3.8150808 4.190323 h -2.101356 l -2.101356,0.037524 -0.03752,0.337718 q -0.03752,0.3752422 -0.112572,0.5628633 -0.03753,0.1500969 -0.07505,0.2626696 l 0.187621,0.075048 q 0.187621,0 1.050679,0 h 1.275823 V 5.3160496 5.1659527 h 0.750484 q 0.750485,0 0.788009,0 0.03752,0 0.03752,3.6773736 0,3.6398497 -0.07505,3.9775677 -0.07505,0.300193 -0.225146,0.600387 -0.112572,0.300194 -0.300193,0.525339 -0.150097,0.225145 -0.300194,0.337718 -0.150097,0.112573 -0.412766,0.112573 h -0.26267 v -0.562864 -0.562863 h -2.514123 -2.514122 l -0.112573,0.26267 q -0.150097,0.225145 -0.337718,0.45029 -0.150097,0.225146 -0.300194,0.337718 -0.150097,0.07505 -0.412766,0.07505 H 25.345916 V 9.7814317 5.1659527 h 0.788009 0.788009 v 0.1500969 0.1500969 h 0.637911 0.637912 V 4.8282348 4.190323 H 26.584216 24.970674 V 3.852605 q 0,-0.3377179 0.03752,-0.3377179 0.03752,-0.037524 4.35281,-0.037524 z m -0.03752,2.739268 h -2.40155 v 0.7880086 0.8255328 h 2.40155 2.439074 V 7.0046395 6.2166309 Z m 0,2.3265016 h -2.40155 v 0.8255328 0.7880087 l 2.40155,0.03752 h 2.439074 V 9.3686653 8.5431325 Z m 0,2.3640255 h -2.40155 v 0.825533 0.788009 h 2.40155 2.439074 V 11.732691 10.907158 Z M 21.893688,7.4549301 h 1.425921 v 2.9644129 q 0,3.001938 -0.03752,3.227083 -0.07505,0.26267 0,0.412767 0.07505,0.112572 0.337718,0.375242 0.26267,0.300194 0.600388,0.487815 0.300194,0.187621 0.675436,0.337718 l 0.375242,0.112572 4.202713,0.03752 h 4.202712 v 0.300193 0.337718 h -4.165188 q -4.165189,0 -4.502907,-0.03752 -0.375242,-0.07505 -0.71296,-0.150097 -0.300193,-0.07505 -0.71296,-0.262669 -0.375242,-0.187621 -0.525339,-0.337718 -0.150097,-0.150097 -0.26267,-0.300194 l -0.112572,-0.150097 -0.26267,0.225145 q -0.262669,0.187622 -0.525339,0.337718 -0.300194,0.112573 -0.600387,0.225146 -0.300194,0.112572 -0.600388,0.150097 -0.300194,0.07505 -0.525339,0.112572 h -0.150097 v -0.375242 -0.412766 l 0.26267,-0.03753 q 0.262669,0 0.412766,-0.07505 0.187621,-0.07505 0.375242,-0.225145 0.150097,-0.150097 0.26267,-0.337718 0.150097,-0.187621 0.262669,-0.562864 l 0.112573,-0.337718 V 10.83211 8.2054145 l -0.637912,-0.037524 h -0.675436 v -0.337718 q 0,-0.337718 0.03752,-0.337718 0.03752,-0.037524 1.463444,-0.037524 z"
         style="font-style:normal;font-variant:normal;font-weight:normal;font-stretch:normal;font-size:19.2124px;font-family:xiaowei;-inkscape-font-specification:'xiaowei, Normal';font-variant-ligatures:normal;font-variant-caps:normal;font-variant-numeric:normal;font-variant-east-asian:normal;stroke-width:0.480309"
         id="path33" />
      <path
         d="m 46.09681,1.2634339 q 0.375242,0 0.375242,0.037524 0.03752,0.075049 0.112573,0.4502907 0.07505,0.4502906 0.187621,0.7880086 0.112572,0.3377179 0.262669,0.6379117 0.112573,0.2626695 0.07505,0.3001938 0,0 -0.375242,-0.1125727 Q 46.397004,3.2146933 46.134334,3.0645964 45.83414,2.9144996 45.608995,2.7268785 45.421374,2.5392574 45.233753,2.314112 45.083656,2.0514425 45.008607,1.8262972 44.971083,1.6011519 44.971083,1.451055 l -0.03752,-0.1500969 0.412766,-0.037524 q 0.337718,0 0.750485,0 z m -0.07505,2.4015501 h 7.317223 v 0.3752421 0.337718 h -1.576017 -1.613541 v 1.6510657 q 0,1.6885899 -0.07505,2.1013563 -0.07505,0.3752422 -0.225145,0.863057 -0.112573,0.4127664 -0.337718,0.8255329 -0.225145,0.412766 -0.450291,0.750484 -0.262669,0.337718 -0.600387,0.712961 -0.337718,0.375242 -0.600388,0.637911 l -0.262669,0.225146 0.07505,0.07505 q 0.112573,0.112573 0.525339,0.375242 0.375242,0.300194 0.863057,0.562864 0.337718,0.225145 0.938106,0.562863 0.487815,0.262669 1.163251,0.562863 0.600387,0.300194 1.238299,0.525339 l 0.562863,0.26267 v 0.300193 q 0,0.337718 -0.03752,0.337718 0,0 -0.637912,-0.187621 -0.600387,-0.150097 -1.275823,-0.375242 -0.637912,-0.225145 -1.425921,-0.525339 -0.750484,-0.300194 -1.42592,-0.637912 -0.750484,-0.337718 -1.238299,-0.637911 -0.487815,-0.300194 -0.562864,-0.300194 -0.03752,0 -0.45029,0.262669 -0.487815,0.300194 -1.050678,0.600388 -0.562864,0.262669 -1.200775,0.525339 -0.600388,0.26267 -1.275824,0.487815 -0.750484,0.300194 -1.538493,0.487815 -0.71296,0.225145 -1.238299,0.337718 -0.412767,0.112572 -0.487815,0.112572 0,0 0,-0.187621 v -0.225145 l 0.675436,-0.26267 q 0.675436,-0.262669 1.163251,-0.487814 0.375242,-0.150097 1.013154,-0.450291 0.525339,-0.26267 0.975629,-0.525339 0.487815,-0.26267 0.900582,-0.525339 0.525339,-0.337718 0.788008,-0.525339 0.300194,-0.225146 0.487815,-0.375243 l 0.112573,-0.07505 -0.600388,-0.637912 Q 43.995454,10.982207 43.69526,10.56944 43.43259,10.156674 43.207445,9.7439075 42.9823,9.2936169 42.907251,8.9934231 42.757154,8.6181809 42.71963,8.3179872 42.644582,8.0177934 42.607057,6.2166309 V 4.3779441 H 40.655798 38.704539 V 4.0402261 3.664984 Z m 0.337718,0.7129601 h -2.13888 l 0.03752,1.5760172 q 0,1.6135415 0.112573,1.9887837 0.150097,0.4127664 0.225145,0.6379117 0.112573,0.2626696 0.337718,0.6379118 0.225145,0.4127664 0.562863,0.8630575 0.337718,0.45029 0.600388,0.750484 0.300194,0.300194 0.337718,0.300194 0.03752,0 0.375242,-0.412767 0.337718,-0.375242 0.675436,-0.8630568 0.300194,-0.4502907 0.525339,-0.9005813 0.225145,-0.4878148 0.300194,-0.7504844 0.07505,-0.2626695 0.150097,-0.5253391 0.07505,-0.3001937 0.07505,-1.8011625 V 4.3779441 Z"
         style="font-style:normal;font-variant:normal;font-weight:normal;font-stretch:normal;font-size:19.2124px;font-family:xiaowei;-inkscape-font-specification:'xiaowei, Normal';font-variant-ligatures:normal;font-variant-caps:normal;font-variant-numeric:normal;font-variant-east-asian:normal;stroke-width:0.480309"
         id="path35" />
      <path
         d="m 60.993923,1.2259097 h 0.825533 v 1.4634445 1.4634446 h 0.71296 l 0.71296,0.037524 0.03753,0.337718 V 4.865759 H 62.56994 61.819456 v 0.4878148 l 0.03752,0.4878149 h 0.71296 l 0.712961,0.037524 v 0.337718 0.337718 H 62.56994 61.85698 l -0.03752,3.5272771 q 0,3.527276 -0.07505,3.752421 -0.112573,0.26267 -0.187622,0.450291 -0.03752,0.150097 -0.225145,0.375242 -0.150097,0.225146 -0.375242,0.375242 -0.225145,0.187622 -0.487815,0.26267 L 60.16839,15.410065 V 10.156674 L 60.130866,4.9032832 59.117712,4.865759 H 58.067034 V 4.528041 4.190323 l 1.050678,-0.037524 H 60.16839 V 2.6893542 1.2259097 Z m 7.017029,0.075048 h 0.863057 v 2.213929 2.2514531 l -0.07505,0.337718 q -0.150097,0.337718 -0.26267,0.5253391 -0.112572,0.1876211 -0.112572,0.2251453 0,0 1.988783,0 h 1.988784 v 3.6398494 3.602325 l -0.112573,0.375242 q -0.112572,0.450291 -0.262669,0.637912 -0.112573,0.262669 -0.300194,0.450291 -0.150097,0.187621 -0.337718,0.262669 -0.187621,0.112573 -0.375242,0.07505 H 70.787744 V 15.597686 L 70.75022,15.259968 H 67.035322 63.320425 V 14.92225 14.547008 h 3.714897 3.752422 v -1.726114 -1.726115 h -3.377179 -3.37718 l 0.03752,-0.375242 v -0.337718 h 3.339656 l 3.377179,-0.03752 V 8.9558989 7.5675028 H 67.147895 63.508046 V 7.1922606 6.8545426 h 1.801162 l 1.801163,-0.037524 V 4.0402261 l 0.03752,-2.739268 z m 3.264607,0.8630571 q 0.187621,-0.1125727 0.225146,-0.075049 0.07505,0 0.45029,0.9756297 0.375242,0.9756297 0.412767,1.013154 0,0.075048 -0.26267,0.1125726 -0.300194,0.037524 -0.637912,0.2251453 -0.300193,0.1500969 -0.675436,0.4502907 -0.337718,0.2626695 -0.637911,0.6003875 -0.300194,0.337718 -0.562864,0.7129602 -0.225145,0.3377179 -0.337718,0.3001937 -0.07505,-0.075048 -0.07505,-0.075048 0,-0.037524 0.187621,-0.7129602 0.150097,-0.5628633 0.337718,-1.0882024 0.187621,-0.525339 0.300194,-0.7129601 0.150097,-0.3001938 0.337718,-0.675436 0.225145,-0.3752422 0.487815,-0.6379117 0.262669,-0.2626696 0.45029,-0.4127664 z M 62.945183,2.65183 q 0,0 0.03752,0 0.07505,0 0.225145,0.037524 0.150097,0 0.26267,0 0.487814,0.075049 0.825532,0.1500969 0.375243,0.075049 0.825533,0.3001938 0.450291,0.2251453 0.825533,0.6003875 0.412767,0.3752422 0.487815,0.6003875 L 66.547508,4.528041 66.097217,5.2410012 Q 65.646926,5.9539613 65.496829,6.1415824 L 65.421781,6.2916793 65.271684,5.9164371 Q 65.159112,5.5787192 65.009015,5.2785254 64.858918,4.9783316 64.596248,4.6030894 64.333579,4.2278472 63.958336,3.852605 63.583094,3.4398386 63.245376,3.1771691 62.907658,2.9144996 62.907658,2.8019269 q 0,-0.1500969 0.03753,-0.1500969 z m -3.902519,2.3265016 h 0.750484 v 3.3771798 q 0,3.4147036 -0.07505,3.7148976 -0.07505,0.337718 -0.225146,0.600388 -0.112572,0.262669 -0.337718,0.487815 -0.225145,0.225145 -0.412766,0.300193 -0.187621,0.112573 -0.337718,0.150097 H 58.292179 V 9.2936169 4.9783316 Z"
         style="font-style:normal;font-variant:normal;font-weight:normal;font-stretch:normal;font-size:19.2124px;font-family:xiaowei;-inkscape-font-specification:'xiaowei, Normal';font-variant-ligatures:normal;font-variant-caps:normal;font-variant-numeric:normal;font-variant-east-asian:normal;stroke-width:0.480309"
         id="path37" />
    </g>
  </g>
</svg>
